<?xml version="1.0" encoding="UTF-8"?>
<svg id="Camada_1" xmlns="http://www.w3.org/2000/svg" version="1.1" viewBox="0 0 500 244">
  <!-- Generator: Adobe Illustrator 29.0.0, SVG Export Plug-In . SVG Version: 2.1.0 Build 186)  -->
  <defs>
    <style>
      .st0 {
        fill: none;
        stroke: #000;
        stroke-miterlimit: 10;
        stroke-width: 1.3px;
      }

      .st1 {
        fill: #b3b3b3;
      }

      .st2 {
        fill: #004495;
      }
    </style>
  </defs>
  <g id="Camada_2">
    <path class="st1" d="M102.5,31.5c-4.2,30.1-8.5,60.1-12.7,90.2.6,0,1.5.1,2.5,0,5.7-.6,9.4-5.2,11.4-7.6,7.5-8.9,14.2-15.6,16.5-17.8,2.8-2.7,7.4-6.5,14-10.2h52.4c-6.7,6.3-15.5,11.4-26,13.9,6.8,10.9,18.3,35.9,34.5,75h-64.8l-19.1-38.1c-2.5-1.1-6.5-2.4-11.4-2.5-6.3-.2-11.2,1.4-14,2.5l-5.1,38.1H18.6L45.3,16.3c17.2-.2,72.6-.8,104.2,0,1.5,0,5.3.2,10.2,1.3,2.9.7,38,12.2,40.7,36.8.6,5.3-.4,11-2.7,16.4-20.7,0-41.4,0-62.1.1-5.8-4.7-9.3-9.4-11.4-12.7-7.2-11.4-7.2-21.6-15.2-25.4-2.5-1.2-4.8-1.3-6.4-1.3Z"/>
    <polygon class="st1" points="223.5 86.2 287.5 86.2 273.5 175.1 208.9 175.1 223.5 86.2"/>
    <path class="st2" d="M298.6,16.3l-8.6,54.4c-21.3,0-42.6,0-64,.1l8.9-54.5h63.6Z"/>
    <path class="st1" d="M440.5,125.5l26.7,30.5c-11.4,8-36.7,23.2-71.1,24.1-9.4.2-69.6,1.8-90.2-38.1-9-17.4-7.7-37.3-.7-55.9h58.6c-5.3,15-4.2,32.2,5.6,43.2,15.2,17,43.4,10.7,45.7,10.2,12.7-3,21.3-10,25.4-14Z"/>
    <path class="st1" d="M372.3,70.5c-20,0-40,0-60,0,7.5-13.4,17.4-25.3,27.8-34,32.2-26.9,76.2-29.3,109.3-16.5,19.7,7.6,33.1,19.7,40.7,28-15.7,8-31.3,16.1-47,24.1-2.6-3.8-9-12.2-20.3-16.5-22.3-8.5-42.3,6.9-43.2,7.6-2.7,2.1-5.1,4.6-7.2,7.3Z"/>
    <path class="st0" d="M149.5,43"/>
    <path class="st2" d="M35.7,212.6h12.8c-.3,3.4-2,6.1-5.1,8.1-3.1,2-7.2,2.9-12.4,2.9s-10.2-1.2-13.5-3.7-5-5.9-5-10.2,1.6-7.6,4.9-10.1,7.7-3.7,13.4-3.7,9.3,1,12.5,2.9c3.2,1.9,4.8,4.5,5,7.8h-12.8c-.1-1.2-.6-2.1-1.4-2.7-.8-.6-1.9-.9-3.4-.9s-3.2.5-4.1,1.6-1.3,2.8-1.3,5,.4,4,1.3,5.1c.8,1.1,2.2,1.6,4,1.6s2.6-.3,3.5-1,1.3-1.6,1.5-2.8Z"/>
    <path class="st2" d="M52,209.7c0-4.3,1.6-7.6,4.8-10.1s7.7-3.7,13.3-3.7,10.1,1.2,13.3,3.7,4.8,5.8,4.8,10.1-1.6,7.7-4.8,10.2-7.7,3.7-13.3,3.7-10.1-1.2-13.3-3.7c-3.2-2.5-4.9-5.9-4.9-10.2ZM64.9,209.7c0,2.4.4,4.1,1.2,5.2s2.2,1.6,4,1.6,3.2-.5,4.1-1.6c.8-1.1,1.3-2.8,1.3-5.1s-.4-4.1-1.3-5.1c-.8-1-2.2-1.6-4.1-1.6s-3.2.5-4,1.5-1.2,2.7-1.2,5.1Z"/>
    <path class="st2" d="M93.5,222.6v-25.8h11.6v3.8c1.4-1.5,3-2.6,4.8-3.4,1.8-.7,3.8-1.1,6.1-1.1s3.9.4,5.5,1.1,2.9,1.8,4.1,3.4c1.5-1.5,3.3-2.7,5.1-3.4s3.9-1.1,6.3-1.1c3.8,0,6.7.8,8.8,2.4s3.1,3.8,3.1,6.6v17.6h-12.6v-13.8c0-1.6-.3-2.8-1-3.5-.7-.7-1.8-1.1-3.3-1.1s-2.7.4-3.4,1.1c-.7.8-1.1,1.9-1.1,3.6v13.7h-12.5v-13.5c0-1.8-.4-3-1.1-3.8-.7-.8-1.8-1.2-3.4-1.2s-2.5.4-3.2,1.2c-.7.8-1.1,1.9-1.1,3.4v13.9h-12.6Z"/>
    <path class="st2" d="M155.5,233v-36.2h11.3v3.3c1.3-1.4,2.7-2.4,4.4-3,1.7-.6,3.7-1,6-1,4.2,0,7.5,1.3,10.1,3.8,2.6,2.5,3.9,5.8,3.9,9.9s-1.3,7.5-3.8,10-6,3.7-10.4,3.7-3.7-.3-5.2-.8-2.8-1.4-3.9-2.5v12.8h-12.4ZM178.4,209.8c0-2-.4-3.5-1.3-4.5s-2.1-1.5-3.9-1.5-3.2.5-4.1,1.4-1.3,2.5-1.3,4.5.4,3.4,1.3,4.4c.9,1,2.2,1.5,3.9,1.5s3-.5,3.9-1.5,1.3-2.4,1.3-4.4Z"/>
    <path class="st2" d="M194.7,209.7c0-4.3,1.6-7.6,4.8-10.1s7.7-3.7,13.3-3.7,10.1,1.2,13.3,3.7,4.8,5.8,4.8,10.1-1.6,7.7-4.8,10.2-7.7,3.7-13.3,3.7-10.1-1.2-13.3-3.7c-3.2-2.5-4.9-5.9-4.9-10.2ZM207.5,209.7c0,2.4.4,4.1,1.2,5.2s2.2,1.6,4,1.6,3.2-.5,4.1-1.6,1.3-2.8,1.3-5.1-.4-4.1-1.3-5.1c-.8-1-2.2-1.6-4.1-1.6s-3.2.5-4,1.5-1.2,2.7-1.2,5.1Z"/>
    <path class="st2" d="M236.2,222.6v-25.8h11.6v3.8c1.5-1.5,3.2-2.6,5-3.4,1.8-.7,3.9-1.1,6.3-1.1s3.7.3,5.2.8,2.8,1.3,3.9,2.3c1,.9,1.7,2.1,2.1,3.4s.6,3.5.6,6.6v13.4h-12.8v-13.4c0-2-.3-3.3-1-4.1-.6-.7-1.8-1.1-3.4-1.1s-2.8.4-3.6,1.3-1.2,2.2-1.2,3.9v13.3h-12.8Z"/>
    <path class="st2" d="M299.2,215h12.2c-.9,2.8-2.8,5-5.8,6.4s-7,2.2-11.9,2.2-9.9-1.2-13.1-3.7-4.9-5.8-4.9-9.9,1.7-7.8,5-10.3,7.8-3.8,13.5-3.8,10.2,1.4,13.4,4.1c3.2,2.7,4.9,6.5,4.9,11.4v.6h-23.9c0,1.7.6,2.9,1.6,3.8s2.5,1.3,4.3,1.3,2.3-.2,3.1-.6c.8-.4,1.4-.9,1.7-1.6ZM288.6,206.8h11.4c-.1-1.6-.7-2.8-1.7-3.6-1-.8-2.4-1.2-4.2-1.2s-3,.4-4,1.3c-1,.9-1.5,2-1.6,3.5Z"/>
    <path class="st2" d="M317.8,222.6v-25.8h11.6v3.8c1.5-1.5,3.2-2.6,5-3.4s3.9-1.1,6.3-1.1,3.7.3,5.2.8,2.8,1.3,3.9,2.3c1,.9,1.7,2.1,2.1,3.4s.6,3.5.6,6.6v13.4h-12.8v-13.4c0-2-.3-3.3-1-4.1-.6-.7-1.8-1.1-3.4-1.1s-2.8.4-3.6,1.3-1.2,2.2-1.2,3.9v13.3h-12.8Z"/>
    <path class="st2" d="M373.8,213.1c0,.9.3,1.5.9,1.8s1.8.5,3.4.5.8,0,1.1,0c.2,0,.5,0,.7,0v7.4c-1.6,0-3,.1-4.3.2-1.3,0-2.5,0-3.6,0-4.1,0-6.9-.5-8.5-1.6s-2.4-3-2.4-5.8v-13h-4.5v-5.9h4.5v-8h12.7v8h6v5.9h-6v10.4h0Z"/>
    <path class="st2" d="M406.8,215h12.2c-.9,2.8-2.8,5-5.8,6.4s-7,2.2-11.9,2.2-9.9-1.2-13.1-3.7-4.9-5.8-4.9-9.9,1.7-7.8,5-10.3,7.8-3.8,13.5-3.8,10.2,1.4,13.4,4.1c3.2,2.7,4.9,6.5,4.9,11.4v.6h-23.9c0,1.7.6,2.9,1.6,3.8s2.5,1.3,4.3,1.3,2.3-.2,3.1-.6c.8-.4,1.4-.9,1.7-1.6ZM396.1,206.8h11.4c-.1-1.6-.7-2.8-1.7-3.6-1-.8-2.4-1.2-4.2-1.2s-3,.4-4,1.3c-1,.9-1.5,2-1.6,3.5Z"/>
    <path class="st2" d="M423.7,214.5h12.4c0,1.1.3,1.9,1.1,2.5.7.5,1.8.8,3.2.8s2.4-.2,3.1-.5,1.1-.9,1.1-1.6c0-1.2-1.6-2-4.8-2.6-.3,0-.5,0-.6-.1-6-1-9.9-2.1-11.8-3.3s-2.7-2.9-2.7-5.2,1.3-4.9,4-6.3c2.7-1.4,6.6-2.2,11.8-2.2s8.5.7,11.1,2c2.6,1.4,4.1,3.4,4.5,6.1h-11.5c-.1-.8-.5-1.4-1.3-1.9s-1.7-.7-2.8-.7-2,.2-2.6.5-.9.8-.9,1.3c0,1,1.4,1.8,4.3,2.3.8.1,1.3.2,1.7.3,5.8,1.1,9.6,2.2,11.4,3.4s2.6,3,2.6,5.3-1.4,5.2-4.3,6.7-7.1,2.3-12.7,2.3-9.2-.7-11.9-2.3c-2.7-1.5-4.2-3.8-4.5-6.8Z"/>
  </g>
</svg>