<?xml version="1.0" encoding="UTF-8"?>
<svg id="Capa_1" xmlns="http://www.w3.org/2000/svg" version="1.1" viewBox="0 0 849.4 907.8">
  <!-- Generator: Adobe Illustrator 29.0.0, SVG Export Plug-In . SVG Version: 2.1.0 Build 186)  -->
  <defs>
    <style>
      .st0 {
        stroke-miterlimit: 10;
      }

      .st0, .st1 {
        fill: none;
        stroke-width: 2px;
      }

      .st0, .st1, .st2 {
        stroke: #315538;
      }

      .st1, .st2 {
        stroke-miterlimit: 10;
      }

      .st3 {
        fill: #fff;
      }

      .st4 {
        opacity: .4;
      }

      .st5, .st6 {
        font-family: Insaniburger-with-Cheese, 'Insaniburger with Cheese';
        font-size: 58.5px;
        font-style: italic;
        isolation: isolate;
      }

      .st2 {
        fill: #315538;
      }

      .st7 {
        fill: #728c3b;
      }

      .st6, .st8 {
        fill: #e6e6e6;
      }

      .st9 {
        fill: #2c5336;
      }
    </style>
  </defs>
  <g>
    <path class="st2" d="M726.2,830.6c-.8-6.9-2.3-14.2-4.3-21.7h0c-1.4-5.4-3.1-10.7-5-16.1l10.6-5.8c2-1.1,3.5-3.1,4-5.4.5-2.3,0-4.7-1.5-6.5l-33.3-43.5c-.5-1.6-3.4-10.4-7.7-21.1h0c-3-7.5-6.6-15.8-10.7-23.3l3.5-5.3c1.4-2.2,1.1-5.1-.9-6.9l-3.1-2.9,22.9-33.8c1.8-2.6,2.9-5.7,3.1-8.8l1.1-12.4c.3-3.4-.3-6.8-1.8-9.8-6.5-13.3-25-48.5-57.2-87.6-2.1-2.5-4.6-4.5-7.5-6l-28.5-14.5c-3.9-1.9-8-3.4-12.2-4.2l-23.1-4.8-.3-74.5c0-9.6-4.3-18.7-11.7-24.8-7.4-6.2-17.1-8.7-26.6-7-21,3.8-43.2,14-65.9,30.6l-.7-2c5-5.6,40.5-44.1,76.6-64.9.9-.5,1.8-1.2,2.5-2l2.9-3.1c2.7-2.9,3.5-7,2.2-10.7-2.7-7.6-9.1-22.6-21.1-37.2-1.1-1.4-2.6-2.5-4.3-3.1l-15.9-6.2c-2.1-.8-4.3-1-6.5-.4l-9.6,2.3c-.9.2-1.7.6-2.5,1-6.5,3.6-40.3,23.3-71,51.7-1.8,1.7-4,2.8-6.4,3.2l-9.2,1.6c-1.7.3-3.3,1.2-4.5,2.4l-9.3,10c-1.7,1.8-2.4,4.2-2.1,6.7l7.1,47.9-.5.6-7.3-3.8c-2.7-1.4-6-1-8.3,1l-9.5,8.4-2.8-.3,4.2-2.8-6,1.2,3.5-5-5.5,3.5.8-4.5,1.8-.5h-1.7c0-.1.1-.6.1-.6l-.4.5-7.4-.4c-.3,0-.6,0-.8-.1.1-.2.2-.5.3-.8l3.3-7.6-5.8,5.9-.2.2c0-.1,0-.2-.1-.2l-.9-2.8,1.2-.3-1.4-.4-1.4-4.6-.3,4.1-2.7-.7q-.1,0-.2-.1c.1-.1.1-.2.2-.2l4.3-5-6.1,2.5c-.5.2-.8.3-1,.4-.1-.2-.1-.5-.2-1v-.4c-.1,0,3.2-.5,3.2-.5l-3.5-1.1-.8-4.4-1.2,3.8-1.2-.4c-.5-.2-.9-.3-1-.4.1-.2.2-.6.5-1.2l3-5.8-5.3,3.9c-.5.4-.8.5-1,.6-.1-.2-.2-.4-.4-.9l-.4-.9,3.6-.7-4.4-1.2-1.3-3.1-.2,2.7h-.5c-1.2-.4-1.4-.6-1.5-.6,0-.1-.1-.4.2-1.9l1.3-6.1-3.6,4.2-2.1-1-1.3-2.2-.2,1.5c-.3-.1-.5-.2-.6-.3.1-.2.3-.5.6-.9l3.3-4.6-5.2,2.3c-1.1.5-1.5.5-1.6.5-.1-.1-.3-.4-.7-1.2l-1.6-3.5,3-2.5-5.4.9q-2.2.3-2.8-1.6l-.2-.5,1.4-.6-1.8-.5v-.2c-.1,0,3.6.7,3.6.7l-4.1-1.9-.4-1.3h2.5l-5.3-1.8.2-3.4-2.3,2.7-1.7-.6c-2.1-.7-2.4-.8-2.8-3.4l-.9-5.5-1,2.6-3.2-1.1c-1.7-.5-2.1-.7-2.2-2.2h.6l-.6-.4v-5.8l-2.7,4.1-1.8-1.1c-.4-.3-.7-.4-.8-.6,0-.1.2-.5.7-1.2l3-4.1-4.7,1.7c-.5.2-1,.3-1.3.4l-1.9-1.2h0l-1.5-2.4c.1-.1.1-.2.2-.2l2.8-4-4.6,1.7c-2.2.8-2.3.7-3.3-.8l-.8-1.2,3-1.3-4.7-1c-2.4-.5-2.8-.8-3.4-3.2l1.5-.2-1.8-.8-.4-1.4,4.5,1-4.9-2.3-.3-.9-.3.7-5-2.3c0-.1-.1-.2-.1-.3l-.3-1.1,5.5-2.2h-6.1l-.5-2-.6,2h-1.5l-4.4-2.6-2.1-2.9v1.3c-.4-.5-.7-1.2-.9-2.3h3.4c0,.1-3.6-1.4-3.6-1.4l-.6-4.2-1.6,3.2h-.1l-4.5-3.1c-.2-.4-.3-1-.5-1.7l-.4-1.8,5.9.8-6.3-2.3-.3-1.4-.4,1.1-2.7-1v-.3l-.8-4.1,2.2-2-2.4.6v-.5c-.1,0-.4.6-.4.6l-3.4.9-2.7-.7,6.2-2.1-7.7-.6c-3.4-.3-3.8-.8-5-2.4l-1.8-2.4-.3.9c-.6-.5-.5-.7.3-1.8v-.2c.1,0,2.6.5,2.6.5l-2.1-1.1,1.7-2.6-4,1.1c-.1,0-.2.1-.3.1l-3.9-2.3c-2.4-1.3-3-1.8-4.2-4.8l1.5-.2-2-.9-1.7-3.9-.4,2.9-.6-.3c-2.6-1.2-3.2-1.7-4.6-4.7l-1.2-2.5,6.4.7-7.3-2.6v-.2c-.1,0,0-.4,0-.4l1.6.3-1.5-.7.4-1.2-1.5.7-4.6-2.2h0l.3-.5,6.7-.3-5.8-1.3,1.6-2.6-4.1,2.1-3.5-.8c-.5-.1-1.7-.4-1.9-.6-.1-.1-.2-.6-.2-1.3h.6l-.6-.3,3.6.5-3.6-1.7v-4.6c.1,0-2.3,3.5-2.3,3.5l-2.7-1.3c-2.3-1.1-2.9-1.6-4-4.6l-.6-1.8.7-.4-1-.3-.6-1.7-.5,1.4-1.8-.5c-2.4-.7-3.2-1.3-4.1-2.7l4.2.7-5.8-3.3-.5-.8-.2.4-1.1-.6c-2.1-1.2-3.1-1.8-3.9-3.1l6.3,1-7.8-3.6-2.5-5.3-.2,2.6c-.5,0-.9-.1-1.1-.1,0-.2.1-.6.3-1.3l.6-2.1h1.1c0,.1-1-.3-1-.3l2.1-7.4-4.3,6.5-1-.4.2-3.8-2.4,3-2.4-.9c-3.1-1.2-3.7-1.8-4.7-4.7l-1.1-3.3h2.5c0,.1-3.2-1-3.2-1l.4-.6-1.7.2-4.4-1.6h0c0-.1,4.2-2.1,4.2-2.1l-5.9-.4,1.3-.5-4-1,5.9-6-6.2,3,2.6-4.8-5.9,4.7c-.1.1-.2.1-.3.2h-.1c0-.2,0-.3-.1-.4l-1.4-4.8v.3c-.1,0-.1-3.8-.1-3.8l-2.8,4h-.1c0,.1-2.1-1.2-2.1-1.2-.5-.3-.8-.5-.9-.7,0-.1.1-.4.5-1.2l2.4-4,1.8-.3-9.5-1.2-.2-.4h.5c0,.1-.5-.2-.5-.2l-1-2.2v1.7c-.1,0-3.9-1.9-3.9-1.9,0,0-.1-.1-.1-.2l-.9-1.4,8.8-2.1-10.3-.3-2.7-4.2,3.1-1.9-3.7.9-1.1-1.7.6,1.8-5.2,1.3c-1.6.4-2,.5-2.5-.2l2.9-1.8-2.9.3,2.1-1.6-3.5.7-2.5-4.4.2,4.8h-.6c-.5.2-.8.2-.9.2-.1-.1-.1-.4-.2-1l-.6-4.7-2.3,4.2c-.1.2-.2.4-.3.5,0,0-.1-.1-.2-.1v-.2c.1,0-.3,0-.3,0l-1-.8,1.8-3.4-4.5,2.5c-.9.5-1.2.6-1.3.6l-.3-.3,2.9-2.4-2.5.7,1.7-1.6-3.5,1.2-2-3.3v4.1c-.1,0-1.5.5-1.5.5-.4.1-.6.2-.8.2-.1-.2-.1-.5-.2-.9l-.8-5.3-1.9,4.4-2.3.7-2.7-1.6.5-4.8-3.5,5.7q-1.2,1.9-3.1,1.2l-2.5-.9v-.8l-.7.6-4.2-1.5,2.9,2.7-.9.9c-.3.3-.4.4-.6.5-.1-.1-.3-.3-.5-.6l-1.7-2.2.6-1.5-1,1-.7-.9v1.6l-2.8,2.8h-.3c0-.1.1.2.1.2l-.5.5c-.7.7-1,.9-1.1,1,0-.1-.5-.3-1.3-1.1l-4.7-4.9,2.2,6.5c0,.4.2.7.3.9h-2.6v-4.8l-2.3,4.8h-2.3l1.8.9-.2.4c-.6,1.2-.8,1.5-.9,1.5s-.4.1-1.8-.5l-6.2-2.4,2.1,2.2-.8,3.4h-.4c0,.1.3.3.3.3v.4c-.2.3-.2.5-.3.7-.2-.1-.4-.1-.7-.3l-4.8-2.4,2.7,4.5h-.8c0,.1,0-.2,0-.2l-.2.3-1.4.2-1.6-4.5-.7,6.9c0,1-.2,1.3-.3,1.5-.2,0-.6.1-1.6-.1l-6.7-.9,5.5,3.6-.7.3-.8-1.1-.5,1.8-1.2.6v-1.2l-.9,2.2-3.8-1.6,2.5,4.1c0,.1,0,.2.2.3l-.4,1h0l-.8.4-3.4-5.1,1.1,6.3h0,0v.8q.5,2.5-1.7,3.5l-1.7.7-.8-1v1.3c0,0-4.4,2-4.4,2h4.7l.2,2c0,.7,0,1,0,1.2-.2,0-.6.1-1.3.1l-5.8-.2,4.9,3.1c.3.2.5.3.6.4v.4c-.2.1-.3.2-.4.3l-.5.4-3.3-2.7,1.7,4.3-1.2,1.1,1.6-.2v.2c.5,1.1.5,1.4.5,1.5s-.3.3-1.5.8l-5.4,2.3,5,.6v1.4c0,0-.6,1.1-.6,1.1h.7v.7l-6.4-3.6,4.5,5.9c1.1,1.4,1.4,1.8,1,2.7l-2.9-3.3,1.7,5-2.1,3h-3.4c0,.1,2.4,1.4,2.4,1.4l-1.3,1.9,2.2-1.4,1.9,1c.9.5,1.2.7,1.3.8,0,.1-.2.5-.6,1.2l-2,3.5-3-1.1,2.4,2.2v.2c0,0,0-.1,0-.1l2.8,2.7c1.1,1,1.2,1.3,1.2,1.4s0,.4-1,1.6l-4.3,5.5,6.1-3.1v1.8c0,0-1.3-.2-1.3-.2l1.1,1.4v1.1c0,0,.4-.5.4-.5l1.1,1.4c0,.1,0,.1,0,.2,0,0-.2.1-.3.1l-6,1.6,6,1.4c1,.2,1.4.4,1.5.5,0,.1,0,.5-.3,1.4l-.6,2.2h-2.8c0,.1,2.4,1.3,2.4,1.3l-.6,2.5,1.8-1.9,2,.9c.9.5,1.2.7,1.3.8,0,.1,0,.3-.2.8h0,0c0,.3-.2.5-.3.8l-2.6,5.5,4.9-3.6h.2c0,.1.7,3.4.7,3.4l1-1.3.2.2.2.2-.4.6c1.4,1.2,2,1.6,2.1,2.7l-7.9-2.4,7.8,4.6v1.3c0,0-7.5.7-7.5.7l7.2,1.2-.7,8.5,3-8.1,2,.3c.6.1,1,.2,1.3.3,0,.2-.2.7-.5,1.3l-3.9,9.1,4.4-5.1,3.8,1.5.7,1.9-6.5,1.3,7.1.4,1.3,3.8-.3-3.8,4.2.2h.7c0,.2-.2.4-.4.7l-2.6,4.7h-1c0,.1.8.3.8.3l-2.3,4,3.9-3.7,5,.9,1.7,6.9v-3.1c0,0,3.1,1.2,3.1,1.2l-1.8,7,3.9-6.1,3.2,1.3,3.2,6.3-2.1,5.7,5.5-6.3c.4-.5.7-.8.9-1,.2.3.5.7.6.9l1.1,1.9-4.3.8,5.6,1.3,1.9,3.2-3-.4,3.8,1.6.5.8-.4,4.7,2.6-4.3,2.6,1.1.5.3.5.8v-.4l3.2,2.3c.2.5.4,1.1.6,2l.3,1.1-4.5,1.6,5,.3,1.5,6.1.6-6h.5c.8.1,1.4.1,1.9.2l.4.4v-.4c1,.3,1.3.8,2,2l-2.2-.2,3.1,1.8,3.4,6-1.8,4.7,4.3-3.7,4.2,1.9,1.1,1.5-1.5-.3,2.7,1.7c0,.3,0,.7-.1,1.1l-.4,6,3.3-5c.1-.1.1-.2.2-.3l1.2.8.6.7.2-.2c.2.2.5.3.5.4,0,0,0,.4-.7,1.7l-2.6,4.6,4.7-2.4q1.9-1,2.9.4h.1c0,.1-1.5.3-1.5.3l2.6,1.4,1,1.4v-.8c.1,0,.3.1.3.1,1.3.7,1.7.9,1.7,2.1l-7.1-.3,6.9,2.2-.2,1.5-2.4.9,2.3.2-.3,2.4,1.9-2.3,3.2.3c2.3.2,2.7.5,3.3,2.1h-1.9c0,.1,2.4,1.4,2.4,1.4l1.2,2.9.7-1.9.8.4c.7.4,1.5.8,1.6,1.1.1.1.1.4,0,.9l-2.4-.2,2.1,1.1c-.1.2-.1.4-.2.6h-2.4l2.1.8-2.1,5.4,4.7-4c.1-.1.2-.2.4-.3l2.8,1.1c1.1.4,1.8.7,2.2,1.3l-6.4-1.1,7.4,3.5v.2l.2.8-5.3,1.5,5.8.6.5,1.9.7-1.8h1.1c3.2.4,3.5.9,4.6,2.8l1.2,1.9-1.9-.5,2.3,1.5-2.2,3.3,4.1-1.1c.4-.1.8-.2,1.1-.3l2.6,1.7.5.8.3-.2c1.5,1,2.1,1.4,2.4,4.2h-1.6l1.6.7.5,5.1,2-4,2,.9c1.9.9,2.4,1.2,2.9,4l.7,4.2.8-1.4,2.8.6c2.2.5,2.6.8,3.4,2.9l1.1,2.8,1.3-2h.1c0,.1.1.2.1.2.8.7.9.7.2,1.9l-.4.8-5.4-.2,4.7,1.5-.5,1,2.1-.5,4.3,1.3-4.7,3.3,6-.6c1-.1,1.6-.1,2.1,0h-1.2l3.7,2.3.3.4h.2c0-.1.5.2.5.2,1.5.9,2,1.3,2,4.2v1.9l-.7.2.7.2v2l1.4-1.6,3.7.9c2.4.6,2.9,1.1,3.8,2.8l-1.9-.2,2.5,1.6.7,1.5.5-.8,1.8,1.1c2.5,1.5,3.2,2.2,5,5.2l.3.5-1.2.3,1.9.9,2.7,4.5-.4-3.4c2.2,1,2.8,1.7,4.1,3.9l1.6,2.8-1.7,1.7h3.6c2.2.2,3,.5,3.6,1.3l.7.8h.2c0,.1-3,1-3,1l5.2,1.5c2.5.7,3,1.3,4,3.3l1,2.1,1.1-1.2.6.6h.1c-.3.3-.9.8-2,1.4l-.6.3h-4c0,.1,2.5.8,2.5.8l-4.8,2.5,6.6-.5-3.5,1,9.7.4h.1c0,.1-.1.1-.1.2l1.6,1.3v.4l-.9,9.4,3.6-8.1.7,1.4.6-.7.2.2c1.6,1,2.3,1.6,3,4.7l.4,2-2.9,1.6h3.2c0,0,.1.2.1.2l.2-.3h2.9c1.1,0,1.6,0,1.7,0s.1.5.2,1.5v3c.1,0-3.7.4-3.7.4l3.8,1v4.4c.1,0,1.5-4,1.5-4l2.5.6,1.9,4.3-.4-4c4.2,1.1,4.6,1.8,5.8,3.8l.6,1-5.3,1.4,6.7,1.3c.1,0,.2,0,.3,0h.1c0,0,0,0,0,0,3.9.8,4.5,1.4,6,3.3l.4.5-2,.3,4.2,2.3,1.3,1.5-.7.4,2.2,1.4c.3.2.4.3.4.3,0,0-.1.3-.3.8l1.7,1c0,.2-.1.4-.2.6l-3.5,11.7,6.3-10.4h0c0,0,.8-.3.8-.3,0,0,.1,0,.1.2l2.4,4.1.5,7.2c.2,3.5,1.5,6.9,3.6,9.7l5.4,7.2-2.9,31.4c-.2,1.8.2,3.6,1.1,5.1l2.5,4.5-1.1,3.3c-.9,2.7-.3,5.8,1.6,7.9l14.3,16.4c.2.2.4.4.6.6,1.1,1,2.5,1.8,4,2l12.9,2.4,11.7,10.9-.3.7c-.8,1.8-.4,3.9,1,5.3l101.6,95.6c.9.9,2.3,1.2,3.5.9l.7-.2,7.7,7.1c-.2.5-.2,1-.2,1.5,0,1.1.5,2,1.3,2.7l53.8,45.8c1.6,1.4,3.8,1.8,5.9,1.2l5.9-1.9,118,102.2c4.2,3.7,9.6,5.6,15.2,5.4l8.9-.3c3,0,5.9-.8,8.6-2l14.7-6.8c1.7-.8,3.1-2.3,3.6-4.2.5-1.7.4-3.6-.5-5.2l29.8-25c7.5-6.4,11.1-15.6,10-25ZM34.5,204v-1l.9.2v.3c-.2.4-.3.6-.3.8-.1-.1-.3-.2-.6-.3ZM727.5,776.9c.9,1.1,1.2,2.6.9,4s-1.2,2.6-2.4,3.3l-10.4,5.7-.7-2.2,8.5-4.9c1-.6,1.7-1.6,1.9-2.7.2-1.1,0-2.3-.7-3.2l-24.3-32.7-1.7-5.1,28.9,37.8ZM700.5,744.9l23.8,32.1c.7.9.9,2,.7,3.1s-.9,2-1.8,2.5l-8.4,4.9-14.3-42.6ZM663.3,879.9h0ZM665.4,879.2h0c0,0-.2.2-.3.2-.3.2-.7.3-1,.4-.4,0-.7,0-1.1,0s-.3,0-.5,0h0c-2-.3-3.9-.7-5.9-1.2-2.2-.6-4.1-1.3-5.6-3-1.9-2.2-3.5-4.7-4.7-7.3h0c0-.3,0-.5-.2-.6,0-.3-.4-.9,0-1,.2,0,.4,0,.5,0,0,0,.3,0,.4,0,3.4,1.7,7.4,2.1,11.1,1,2.3-.7,4.4-1.9,6.2-3.5.8-.7,1.7-1.5,2.5-2.2,1.4-1.3,2.8-2.5,4.2-3.8h0l15.3-13.5c4.8-4.2,6.2-11.2,3.3-16.9l-37.4-76c-3.9-7.8-10.5-13.8-18.6-16.9l-10.1-3.9c0,0-.2,0-.3-.2-.2,0-.8-.4-.6-.7,0-.3.6-.3.9-.3h.9c.6,0,1.2,0,1.8.2.4,0,.8.2,1.3.3.3,0,.5.2.8.3q0,0,.2,0c4.2,1.5,8.5,3,12.7,4.5,2.8,1,5.8,1.9,8.4,3.5,3.2,2,5.5,4.9,7.2,8.3,1.8,3.6,3.6,7.3,5.3,10.9,3.2,6.6,6.5,13.2,9.7,19.8,3.7,7.5,7.4,15,11.1,22.5,3.2,6.5,6.4,13.1,9.6,19.6,1.7,3.5,3.4,7,5.1,10.5,1.4,2.9,2.3,6.1,2.2,9.4,0,5.3-2.5,10.2-6.3,13.8-4.3,3.9-8.6,7.9-12.8,11.8-5.3,4.4-10.4,9.1-15.4,13.7ZM459.8,740.1c-1.1.2-2.3.5-3.4.3-1.9-.3-3.2-1.5-4.8-2.5l-3-2.8c-.3-.8-.4-1.6.2-2.6.7-1.1,3-1.6,4.2-2h0c.5,0,1-.3,1.5-.4,10.1-2.7,20.1-5.3,30.2-8,9.9-2.6,19.7-5.2,29.6-7.8,3.1-.8,6.3-1.7,9.4-2.5,2-.5,4-1.2,6-1.2s4.6.8,6.9,1.6c3.3,1.1,6.7,2.1,10,3.2,3.1,1,6.3,2,9.4,3,1.4.5,2.7,1.1,3.9,2.1,1.9,1.5,3,3.6,3.4,6v12.1c0,4.3,1.9,8.2,4.8,11,.7.7,1.5,1.2,2.3,1.7.5.3.9.6,1.4.8.7.4,1.5.8,1.6,1.8,0,.7-.3,1.2-.7,1.7l-1.4,1.1c-1,.6-2.3,1.5-3.8,2.4-1.1.4-2.1.9-3.3.5-1.3-.3-2.2-1.2-3.1-2.2-3.9-5.1-6.1-11.4-6.9-17.9-.2-1.5-.3-3-.4-4.5v-1.8c0-1.1-.3-2.1-.8-3-1.1-1.8-2.9-2.4-4.6-3.2-4.8-2.2-9.7-4.3-14.5-6.5-1.5-.7-3.2-1.7-4.9-1.6-.7,0-1.4.3-2.1.5-2.7.8-5.5,1.7-8.2,2.5-4.7,1.4-9.3,2.8-14,4.3-5.5,1.7-11.1,3.4-16.6,5.1-5.5,1.7-10.9,3.3-16.4,5-4,1.4-8,2.6-12,3.8ZM449.7,731.6h0ZM684.6,842.7l-12.8,11.3-2.4-4.4h0c-.9-1.6-2.6-2.3-4.3-1.9-3.6.9-7.5,1.2-11.5,1.1-9.9-.5-19.4-4.6-26.9-11.5h0c-39-36.2-54.8-69.6-57.4-75.5l9.9-7.6c3.8-.9,7.4-2.8,10.4-5.4l15.3-13.3,1.7.6c1.8.6,3.6.6,5.3.2l1.4,20.3c0,1.6.8,3,2,4.1l3.6,3.4c.9.9,2.1,1.4,3.4,1.6,5.2.7,22.3,2.5,32.9-1.9l32.1,65.2c2.3,4.6,1.2,10.3-2.7,13.7ZM566.4,759.9h0ZM617.7,732.8h0ZM621.9,729.8h0q0,.1,0,0t0,0ZM616.6,733.2h0c0,0-.1,0,0,0h0ZM622.1,730.4h0ZM625.3,729.6h0ZM601.3,735h0ZM622.6,763.1c-.7,0-1.4-.4-1.9-.9l-3.6-3.4c-.7-.6-1-1.4-1.1-2.3l-1.3-17.6v-.9c0-1,.3-1.9.7-2.7.3-.5,1.4-2.6,2.1-1.8.2.3.3.8.3,1.2,0,1,0,2,0,3,0,4.5.2,8.9.3,13.4,0,1.3,0,2.6,0,3.9s0,.8,0,1.2c.2,1,.9,1.8,1.7,2.5s1.6,1.5,2.4,2.2c.8.7,1.6,1.2,2.7,1.3,2.3.3,4.5.4,6.8.5,6.8.3,13.8,0,20.4-1.7.4,0,.8-.2,1.1-.3l.4.9c-9.9,3.9-26.3,2.1-31.3,1.5ZM634.4,762.4c-2.6,0-5.2-.2-7.8-.5-1.1,0-2.4,0-3.4-.8-.7-.5-1.3-1.2-2-1.8-.6-.5-1.2-1-1.7-1.6-.7-.7-1-1.6-1-2.6s0-2.3,0-3.4c0-4.3-.2-8.6-.3-12.8,0-.8,0-1.7,0-2.5v-.2c0-.6,0-1.2.2-1.8,0-.6.3-1.2.8-1.6.4-.3.9-.3,1.3-.2l12.2,4.7c7.5,2.9,13.6,8.4,17.2,15.6l3.6,7.2c-5.9,2.1-12.5,2.4-18.9,2.3ZM622.5,730.6h0ZM623.1,729.6h0ZM625.6,729.7h0,0ZM594.3,730.5c.8.3,1.6.6,2.4.9,2.5,1.1,4.5,2.4,2.7,5.3l-11.6,10.1c-2.6,2.3-5.8,3.9-9.1,4.7h-1.7c-6.5-.6-11.6-6.3-11.6-13l-.2-17.3c4,1.3,8,2.5,12,3.8,5.7,1.8,11.4,3.7,17.1,5.5ZM563.4,764.4h0,0ZM624.8,839.3h0c8,7.4,18.1,11.8,28.6,12.3,4.3.2,8.4-.2,12.3-1.1.5,0,1.1,0,1.4.6l3.5,6.4c-.7.7-1.5,1.3-2.2,2-1.3,1.1-2.5,2.3-3.8,3.4-1,.9-1.9,1.7-3,2.4-4.7,3-10.9,3.2-15.7.4-1.9-1.1-3.4-2.6-5-4.1-1.5-1.4-3-2.8-4.5-4.2-7.5-7.1-14.6-14.5-21.4-22.3-8.5-9.6-16.4-19.7-23.5-30.4-3.7-5.5-7.2-11.1-10.5-16.8,9.2,14.1,23.3,32.3,43.8,51.4ZM630.1,727.3c-2.4.3-4.9.5-7.3.5-2.2,0-4.8-.4-6.7,1-1.7,1.2-2.7,3.1-4.3,4.3-1.7,1.4-4.2,0-6-.5-8.1-2.6-16.1-5.2-24.2-7.7-10.3-3.3-20.5-6.6-30.8-9.9-5.8-1.8-11.5-3.7-17.3-5.5-5-1.6-10.2.5-15.1,1.8-9,2.4-18.1,4.8-27.1,7.2-10.4,2.8-20.8,5.5-31.2,8.3-6.2,1.6-12.4,3.3-18.6,4.9l-9.4-8.9c1.7.5,3.6,0,4.9-1.3,1-1.1,1.4-2.6,1.2-3.9h0v-.6c.1-.5.6-.4,1-.2s.7.4,1,.6c1.2.8,2.5,1.6,3.7,2.4,2,1.3,3.9,2.5,5.9,3.8,2.2,1.4,4.6,1.7,7.1,1,6.7-2,13.3-4.1,19.9-6.2l37.9-11.8,33.9-10.5c2.9-.9,5.9-1.8,8.8-2.7.6-.2,1.3-.4,1.9-.6,2.7-1,4.8-2.9,6.2-5.3h0c.9-1.6,1.4-3.3,1.6-5.1.2-2.2.4-4.5.6-6.7,2.4,0,4.7-1,6.4-2.9,3.4-3.6,3.2-9.4-.5-12.8-1.3-1.2-2.8-1.9-4.4-2.2,0-1.4.2-2.8.4-4.1l1.6-18.8c.3-3.2.7-6.4.8-9.7,0-2.2-.2-4.5-.7-6.7.7-.2,1.4-.3,2.1-.3,2.2,0,4.2,1.2,5.4,3,.7,1,1.3,2,2,3.1,3.3,5.2,6.7,10.4,10,15.5,2.6,4,5.1,8,7.7,12l5,15.9c.4,1.4.9,2.9,1.5,4.2,1,2.1,2.5,3.8,4,5.4l11.2,11.9c9.5,10.1,19.1,20.3,28.6,30.4l1.5,1.5c-2.5,1.9-5.6,3-8.6,4-3.9.9-7.8,1.7-11.7,2.2ZM352.7,648.2c-.2-.2-.4-.4-.5-.6-.1-.2-.3-.4-.1-.6.1-.2.4-.2.6-.2.7,0,1.5,0,2.2.3s1.4.6,2,1c.3.2.6.5.8.7l62.2,57.7c2.4,2.2,4.7,4.5,7.1,6.6.9.8,1.7,1.7,1.7,2.9s-.1.9-.2,1.3c0,.2-.1.5-.1.7s-.1.3-.2.5-.4,0-.6,0-.3-.2-.5-.3l-74.4-70ZM341.7,628.1c-.2.3-.4.6-.6.9-.4.4-.9.8-1.5.8s-.6,0-.8,0c-.1,0-.2,0-.2-.2l-10.5-9.8,8.7-9.4c.9-1,.9-2.6-.1-3.5l-9.9-9.2c.2-.4.4-.9.6-1.3.5-1,1-1.9,1.4-2.9,2.7-2.3,5.8-.4,8.2,1.8l4.9,5.7c.4.5.8,1,1.3,1.4,1.3,1.5,2.3,3.1,2.9,4.9,1.3,3.5,1.2,7.4,0,10.9-.5,1.4-1.1,2.7-1.7,4-.9,2-1.8,4-2.7,6ZM323.8,603.9c.3-1.2.9-2.2,2.2-2.6,1.3-.4,2.2.4,3.2,1.1l2.4,2.2c.2.2.3.4.5.6.4.5,1.2,1.3,1.3,1.9.2,1.2-.6,1.5-1.3,1.5h-2.2c-1.7,0-3.8.3-5-1.1-.9-1-1.3-2.3-1.1-3.6ZM326.7,618.6h0ZM411.6,508.5c20.4,11.9,40.6,24.2,60.6,36.8,18.6,11.6,37.1,23.4,55.4,35.4,3.5,2.3,7.1,4.6,10.6,6.9-.9,3.4-1.9,6.8-2.8,10.2-.4,1.5-.9,2.9-1.1,4.4-.2,1.6-.2,3.1,0,4.6,0,0,0,.2,0,.3.2.8.4,1.6.7,2.4.5,1.3,1,2.7,1.5,4,1.1,2.9,2.2,5.8,3.3,8.7,1.5,4,3,7.9,4.5,11.9,0,.2,0,.3.2.5,0,0,0,.3.2.4,1.6,4.2,3.2,8.4,4.7,12.5,1.7,4.5,3.4,9,5.1,13.6l4.5,12c1.1,3,2.2,5.9,3.4,8.9.5,1.5,1,3,.8,4.5-.2.9-.6,1.8-1.1,2.5,0,.2-.3.3-.4.5-1.2,1-2.6,1.9-4.2,2.4-1.8.6-3.7,1.2-5.6,1.7-10.1,3.1-20.3,6.3-30.4,9.4-12.8,4-25.7,8-38.5,11.9-8.5,2.6-17,5.3-25.5,7.9-.6.2-1.2.4-1.8.6-2.5.7-4.5,0-6.6-1.3l-14.2-9.1c-.8-.5-1.6-.9-2.5-.9-1.4,0-2.3,1-3.2,2l-72.1-66.9c-.2-.2-.5-.6-.8-.8.9-1,1.8-1.9,2.2-3.2.5-1.7.3-3.6-.7-5.1-1.2-1.8-3-3.4-4.5-5-1.6-1.8-4.6-4-3.6-6.7.7-1.9,1.8-3.8,2.7-5.7.9-1.9,1.8-3.7,2.6-5.6,1.5-3.4,1-7.1-1.2-10-2.5-3.3-5.1-6.6-7.7-9.9-2.6-3.3-5.2-6.7-7.8-10,10.7-13.6,36.8-44.8,73.1-76.7ZM571.4,479.3c-.2,4.5-1.3,9.5-6.3,9.7l-3.4-.5c-2.1-.3-4.1-.7-6.1-1.2-.6-.3-1.3-.6-1.8-1-1.3-.9-2.2-2.2-3-3.5-1.2-1.9-1.6-3.9-2.1-5.9l-2.5-52.4c0-2,.2-4,1.2-5.7.7-1.2,1.7-2.3,3-3,.7-.4,1.4-.6,2.2-.6s.4.1.6.1c3.4.8,6.5,2.4,9.1,4.7,1.9,1.7,3.5,3.7,4.6,5.9,1.4,2.7,2,5.7,2.6,8.7.7,3.2,1.3,6.3,1.7,9.5l.2,35.2ZM567,489.3h0ZM536.5,420c1.3-.8,3-.8,4.3,0,.3.2.6.4.9.6.8.8,1.3,1.9,1.4,3l2.9,59.7c-8.5-3.9-38.4-18.1-58.1-32.7,21.4-14.5,38.3-24.6,48.6-30.6ZM608.5,502l12.2,6.1c1.6,1.2,3.1,2.6,4.5,4.1,4.7,5.1,9.4,10.1,14,15.2,5.2,5.8,9.5,12.1,13.7,18.6,3.7,5.9,7.5,11.7,11.2,17.6,8.9,13.9,17.7,27.9,26.6,41.8,2.9,4.6,6.1,9,7.4,14.3,1.1,4.4,1.1,8.9.2,13.3,0-.2,0-.4,0-.6.2-2.8,0-5.6-.5-8.3-1.3-6.3-4.9-11.8-8.1-17.2-7.3-12.4-15.1-24.4-23.4-36.1-7.2-10.2-14.8-20.2-22.6-29.9-3.3-4.1-6.6-8.1-9.9-12.1-3.1-3.7-6.2-7.5-9.6-11-5-5.4-10.6-10.2-16.5-14.5-2-1.4-4-2.7-6-4.1,2.1.7,4.5,1.7,6.7,2.8ZM633.8,529.6h0ZM633.8,529.9h0ZM634.1,529.5c2.2,2.6,4.3,5.2,6.4,7.8,7.6,9.4,15,18.9,22.1,28.7,8.1,11.2,15.8,22.6,23,34.4,1.9,3.1,3.7,6.2,5.6,9.4,1.7,2.9,3.5,5.8,4.7,8.8,2,4.9,2.7,10.4,1.9,15.6-.5,2-1.3,4-2.3,5.9l-6.9,10.2c-5.5,7.7-11.1,15.4-16.6,23.2l-29.8,37.2c-4.3-4.6-8.6-9.1-12.9-13.7-4.9-5.2-9.8-10.4-14.7-15.7-3.3-3.5-7.3-7-8.9-11.6-1.7-4.8-3.2-9.7-4.7-14.6.9,1.1,2.3,1.8,3.8,1.8s2-.5,2.9-.9c1.4-.6,2.8-1.2,4.2-1.8,2.3-1,4.5-1.9,6.8-2.9,2.1-1,3.1-3.3,2.2-5.5,0-.2,0-.3-.2-.5-1-2.3-2.1-4.6-3.1-7-2.1-4.6-4.1-9.3-6.2-13.9-2.7-6-5.3-12-8-18-2.6-5.8-5.1-11.6-7.7-17.4l38.4-59.5ZM668.3,689.7c-.8-1.5-1.6-2.9-2.4-4.4,1.4-1.9,2.7-3.8,4.1-5.7.2,0,.4.3.5.4,2.6,2.4,2.7,6.5.3,9.1-.6.6-1.3,1.1-2.1,1.5,0-.3-.2-.6-.4-.9ZM674.3,673.7h0ZM674.4,673.5h0ZM674.3,675h0ZM673.9,675.1h0s0,0,0,0ZM565.8,675.2h0ZM566.2,676.8v-.2.2ZM566.2,677v.3h0c0,0,0-.2,0-.3h0ZM564.4,683.4s0,0,0,0q0,0,0,0c0,0,0,0,0,0ZM561.8,672.7c-3.5-3.2-3.7-8.7-.4-12.1s8.7-3.7,12.1-.4c3.5,3.2,3.7,8.7.4,12.1-3.2,3.4-8.7,3.6-12.1.4ZM561,660.2c-3.4,3.6-3.2,9.4.5,12.8.7.7,1.5,1.2,2.4,1.6.8.5,1.6,1,2,1.9.4,1.1.3,2.4.2,3.5,0,.6,0,1.3-.3,1.9,0,.4-.2.9-.5,1.1-.3.2-.7,0-.9-.2-.4-.4-.7-.8-1-1.3-.7-1.8-1.3-3.5-2-5.3-1.4-3.8-2.9-7.6-4.3-11.3-1.7-4.4-3.3-8.8-5-13.3s-3.4-9.1-5.1-13.6c-.3-.9-.7-1.7-1-2.6,1.2-.6,2.8-1.2,3.4-2.5.2-.5.3-1.1.4-1.7,0-.8.3-1.7.4-2.5.2-1.3.3-2.6,1.7-3.2.7-.3,1.4-.5,2.1-.8,5.5-2,10.9-4,16.4-6.1.5,2.5.6,5.1.4,7.7,0,.9-.2,1.8-.2,2.6-.4,5.1-.9,10.2-1.3,15.3-.4,4.4-.8,8.7-1.1,13.1-2.7-.1-5.3.9-7.2,2.9ZM571.8,617c-.9,0-1.7.4-2.5.7-2.6,1-5.2,1.9-7.8,2.9-2.9,1.1-5.8,2.1-8.6,3.2-.6.2-1.2.4-1.9.7-.9.4-1.6,1-1.8,2,0,.5-.2,1-.3,1.5-.2,1.2-.3,2.5-.6,3.7-.2,1-1,1.4-1.8,1.8-.3.2-.7.4-1,.5-.2-.4-.3-.8-.5-1.2l1-.5c.6-.3,1-.9,1.1-1.6l.5-3.5c.3-2.1,1.7-3.9,3.7-4.5l18.6-6.4c4.6-1.6,9.5.2,12.1,4.3l21.7,35.2c-.4,0-.8-.2-1.2-.4-.5-.4-.8-.8-1.2-1.4-.4-.6-.8-1.2-1.2-1.8-1.4-2.1-2.8-4.3-4.1-6.4-3.6-5.6-7.2-11.2-10.8-16.8-1.3-2.1-2.7-4.1-4-6.2-.8-1.3-1.6-2.7-2.7-3.7-1.7-1.7-4.3-2.5-6.7-2.1ZM571.2,618.3c-.2,0-.5.2-.7.2.2,0,.4,0,.7-.2ZM538.3,592.5c.2-.5.4-1,.7-1.4.3-.5.8-1,1.4-1.2.5-.2,1,0,1.4,0,2.4,1.6,4.8,3.2,7.2,4.8,2.8,1.9,5.7,3.7,8.5,5.6.6.4,1.3.9,1.9,1.3.4.4.8.8,1,1.4,0,.6,0,1.1-.5,1.5-.2,0-.3.2-.5.3-1.2.6-2.5,1.2-3.7,1.8-2.7,1.3-5.4,2.6-8.1,4-.6.3-1.3.7-2,.8s-1.2-.3-1.7-.7c-.6-.5-1.2-.9-1.7-1.4-.9-.7-1.8-1.4-2.7-2.1-.3-.2-.5-.3-.8-.5,0,0,0,0-.2,0-.6-.3-1.3-.2-1.9-.5-1.2-.7-1.1-2.2-1-3.4,0-.7.2-1.3.4-2,.8-2.9,1.6-5.6,2.3-8.3ZM535.5,605.3q0,.1,0,0,0,.1,0,0,0,.1,0,0h0ZM537.3,607.4c.7,0,1.2,0,1.7.5,1.1.9,2.3,1.8,3.4,2.8,1.2,1,2.4,2.1,4.1,1.7.6-.2,1.3-.5,1.8-.8,5.1-2.5,10.3-5,15.4-7.5,1.1-.5,2.1-1.1,2.9-1.9,1.7-1.8,2.4-4.3,2-6.7-.2-1.3-.6-2.5-.9-3.7-1.5-6-3-11.9-4.6-17.9-1.2-4.7-2.4-9.5-3.6-14.2-.2-.9-.3-1.9,0-2.8.5-1,1.4-1.7,2.5-2,.2,0,.4,0,.7,0,2.9-.7,5.8-1.3,8.8-2,1.2-.3,2.3-.5,3.5-.8,1.6-.4,3.1,0,3.8,1.7.2.4.4.9.6,1.3,1.3,3,2.7,6,4,9.1,2.2,5.1,4.5,10.1,6.7,15.2,2.7,6.1,5.4,12.3,8.2,18.4,2.8,6.2,5.5,12.5,8.3,18.7,2.4,5.4,4.8,10.8,7.2,16.2,1.6,3.6,3.2,7.1,4.7,10.7.4.8.7,1.6,1.1,2.4.9,2,0,4.1-1.9,5-2.5,1.1-5.1,2.2-7.6,3.3-1.3.5-2.5,1.1-3.8,1.6-.7.3-1.5.6-2.3.6l-21.9-35.7c-2.6-4.2-7.7-6-12.3-4.4l-18.6,6.4c-2.1.7-3.6,2.5-3.9,4.7l-.5,3.5c0,.6-.5,1.2-1,1.4l-1,.5c-.9-2.4-1.8-4.8-2.7-7.2-1.2-3.2-2.4-6.5-3.7-9.7-.7-1.8-1.4-3.6-2-5.4-.2-.6-.5-1.2-.6-1.9,0-.3,0-.6-.2-.9.5.1,1.1,0,1.6,0ZM630.2,534.8h0ZM630.5,534.9l-34.8,54c-.2-.5-.5-1-.7-1.6-2.5-5.7-5.1-11.4-7.6-17.1-1.8-4.1-3.6-8.2-5.4-12.3-.5-1.1-1-2.3-1.5-3.4-.3-.7-.6-1.4-1.1-2-1.2-1.5-3.1-2-5-1.6-1.1.2-2.1.5-3.2.7-3,.7-6,1.4-9,2-1.2.3-2.3.6-3.1,1.5-.9,1.1-1.2,2.5-.8,3.9.4,1.5.8,3.1,1.2,4.6,1.6,6.3,3.2,12.5,4.8,18.8.3,1.2.6,2.4.9,3.5l-26.4-17.6c-12.5-8.4-25.1-16.7-37.6-25.1l-12.2-8.1c-1.6-1-3.5-2.9-5.6-2.9,12.9-11,26.4-24.6,36.3-35.2l10.7,7c9.4,6.2,19.5,11.4,29.9,15.5,10.5,4.1,21.4,7.1,32.5,9l37.7,6.4ZM491.8,523.6l-14.7-16c1.2-1.1,2.8-2.5,4.7-4.3l15.5,15.2c-1.9,1.7-3.7,3.4-5.5,5.1ZM497.5,518.2l-15.5-15.2c1.4-1.3,3-2.8,4.7-4.3l16.2,14.3c-1.8,1.7-3.6,3.5-5.4,5.2ZM514.4,501.4l-17.4-12.5c1.5-1.5,3.1-3,4.6-4.5l17.9,11.5c-1.6,1.8-3.3,3.6-5.1,5.5ZM525.2,489.8l-18.5-10.5c1.6-1.6,3.1-3.1,4.4-4.6l19,9.5c-1.2,1.6-2.9,3.5-4.9,5.6ZM506.5,479.6l18.5,10.5c-1.6,1.7-3.3,3.5-5.1,5.5l-18-11.4c1.6-1.6,3.1-3.1,4.6-4.6ZM496.7,489.2l17.4,12.5c-1.7,1.7-3.4,3.5-5.2,5.4l-16.8-13.4c1.4-1.5,3-3,4.6-4.5ZM491.7,494l16.8,13.4-5.3,5.3-16.2-14.3c1.5-1.4,3.1-2.9,4.7-4.4ZM475.2,509.4c.3-.3.8-.8,1.6-1.5l14.7,16c-1.8,1.7-3.6,3.3-5.5,4.9l-13.9-16.6c1-1,2.1-1.9,3.1-2.8ZM466.3,517.6c1.8-1.7,3.6-3.4,5.5-5.1l13.9,16.6c-1.6,1.4-3.2,2.8-4.7,4.1-.7.5-1.4,1.2-2.1,1.7-.6.5-1.2,1-1.9,1.4-.5.3-.8.3-1.3-.2-2-2.1-3.8-4.6-5.7-6.8-2-2.4-4.1-4.7-6-7.2-1.4-1.9,1.1-3.3,2.3-4.5ZM530.6,484l-19-9.5c1.1-1.2,2.2-2.3,3.1-3.3,6.8,3.8,13.4,7.1,18.7,9.7-.7.7-1.6,1.7-2.8,3.1ZM480.3,455.9c.8-.4,1.5-.9,2.4-1.2,1-.4,2.1-.5,3.2-.3,1,.2,2.1.5,3,1l.6.3c7.5,5.3,16.1,10.4,24.3,14.9-3.3,3.7-8.2,8.6-13.4,13.7l-31.3-20.6c3.9-2.7,7.6-5.3,11.2-7.8ZM469.1,463.8l31.3,20.6c-5.7,5.5-11.7,11.2-16.5,15.7,0-.3-.4-.7-1-1-2.7-1.6-5.6-3-8.4-4.4-2.1-1.1-4.2-2.2-6.4-3.4-.9-1.4-1.9-2.6-3.2-3.8-.7-.7-1.5-1.3-2.2-1.8-.6-.8-1.3-1.6-1.9-2.5-2.2-2.9-4.3-6-6.3-9,5.1-3.6,9.9-7.1,14.6-10.4ZM439.5,490.1c6.4-6.9,17.1-7.2,24-.9,6.9,6.4,7.2,17.1.9,24-6.4,6.9-17.1,7.2-24,.9-6.9-6.4-7.3-17.2-.9-24ZM453.7,475c1.2,1.9,2.4,3.7,3.7,5.5.9,1.3,1.9,2.6,2.8,3.9-7.4-3.5-16.5-2-22.3,4.3-3.4,3.6-5.1,8.2-5.1,12.8-1.4-2.4-2.7-4.8-4-7.3,2.8-2.2,5.6-4.5,8.5-6.7,5.6-4.5,11-8.6,16.4-12.5ZM423.8,498.1c.5-.3,1-.5,1.5-.6,1.7-.3,3.3.5,4.4,1.7.4.4.8.9,1.1,1.4.4.7.8,1.5,1.3,2.2.1,0,.1.2.2.3.4.7.7,1.5.9,2.3h0c.8,3.9,2.7,7.4,5.7,10.3,7.7,7.2,19.9,6.7,27.1-1,5.7-6.2,6.6-15.1,2.9-22.1,1.6.8,3.2,1.7,4.8,2.5,1.7.9,3.4,1.8,5.1,2.7,1,.5,2.2,1,3.1,1.6,1.1.7.8,1.6,0,2.4l-.5.5h0l-.2.2c-.5.5-1.1,1-1.6,1.4-1.1,1.1-2.3,2.1-3.4,3.2h0c-1.5,1.4-3.1,2.9-4.6,4.3h0c0,0-.2.3-.2.3h0c-2.4,2.2-4.7,4.4-7.1,6.6-.5.4-1,.9-1.4,1.3-.8,1-.5,1.9.2,2.7,2.1,2.6,4.2,5.1,6.4,7.6,1.7,2,3.3,4.4,5.2,6.2,2.3,2.3,5.6-1.4,7.3-2.7.7-.5,1.3-1.1,2.3-.7.3,0,.5.3.7.5,2.9,1.9,5.8,3.9,8.7,5.8,11.6,7.7,23.2,15.5,34.8,23.2l37.2,24.8c.6,2.4,1.3,4.8,1.9,7.3.6,2.2,0,4.7-1.5,6.4h0c-.3.4-.7.8-1.1,1-.6.3-1.2.4-1.9.3-.6,0-1.3-.3-1.8-.6-.3-.2-.6-.4-.9-.6h0c-.5-.5-1-.8-1.6-1.2-6.2-4.1-12.4-8.2-18.6-12.3-17.3-11.3-34.7-22.6-52.2-33.6-20.5-12.9-41-25.7-61.8-38.1-4.5-2.7-8.9-5.3-13.4-7.9,3.5-3,7.3-6.3,11.3-9.6ZM438.8,716.4h0ZM429.5,715.4h0c0-.1,0,0,0,0h0ZM428.6,714.7h0ZM428.8,715.5h0ZM438,717h0q0,0,0,0h0ZM439,716.6s.1,0,0,0h0ZM351.9,646.5q-.1,0,0,0-.1,0,0,0-.1,0,0,0h0ZM356.5,638.8h0ZM355.7,638.7c1.7,1.6,1.9,4.4.2,6.1-1.6,1.8-4.4,1.9-6.1.2-1.8-1.6-1.9-4.4-.2-6.1,1.7-1.7,4.4-1.8,6.1-.2ZM430.2,715.2c1.6-1.8,4.4-1.9,6.1-.2,1.8,1.6,1.9,4.4.2,6.1-1.5,1.6-3.9,1.8-5.7.6l-.8-.8c-1.3-1.6-1.3-4.1.2-5.7ZM651.2,720.2c-2-2.2-4.1-4.3-6.1-6.5-.3-.4-.7-.8-1-1.3-.3-.6-.4-1.2-.3-1.9,0-.6.4-1.2.7-1.7l16.6-20.6c.3-.4.7-.8,1-1.1s.8-.9,1.3-1.2c.3-.2.6-.3.9-.3h0c.2,0,.4,0,.5,0,.3.2.5.4.6.7.7,1.2,1.4,2.5,2.1,3.8,1.9,3.6,1.3,8-1.1,11.2-2.3,3-4.7,5.9-7.1,8.9-1.5,1.9-3.1,3.9-4.6,5.8-1,1.4-2.1,2.9-3.5,4.1ZM674.5,690.7h0ZM679.1,680.1l-3.2,4.9-6.2,8.5c-.2-.9-.5-1.8-.9-2.7.8-.4,1.6-.9,2.2-1.5,2.5-2.7,2.3-6.9-.3-9.4-.2-.2-.4-.3-.6-.5.7-1,1.5-2,2.2-3,.2-.2.5-.5.8-.7.5-.4,1.2-.5,1.9-.5,1.1,0,2.1.6,2.9,1.2l.9.8c.8.8.9,2,.3,2.9ZM637.1,516.3c2.5,1.3,4.7,3,6.5,5.2,32,38.9,50.4,73.8,56.8,87,1.2,2.5,1.8,5.4,1.5,8.2l-1.1,12.4c0,1.6-.5,3.1-1.2,4.6.2-1.1.4-2.3.5-3.5.5-6.8-1.2-13.6-4.8-19.3-.6-.9-1.2-1.9-1.8-2.8-8.5-13.3-16.9-26.6-25.4-40-4.2-6.6-8.4-13.2-12.6-19.8-2.7-4.3-5.4-8.7-8.4-12.9-5.7-7.8-12.5-14.7-19-21.7-1.2-1.3-2.5-2.7-3.7-3.9l12.7,6.5ZM597,498c1.4.3,2.7.6,4.1,1,1,.7,2,1.3,3,2,5.7,3.8,11.1,8.1,16,12.8,4,3.9,7.6,8.1,11.2,12.3.7.9,1.5,1.8,2.2,2.6,0,0,.2.2.2.4,0,.3,0,.6,0,.9l-2.7,4.2h0c0,.2-.2.2-.3.3,0,0-.2,0-.3,0h-.2l-37.2-6.2c-22.4-3.7-43.4-12-62.4-24.5l-10.7-7c7.1-7.5,12.4-13.4,14.5-15.8,1.2.6,2.4,1.2,3.5,1.7h0l3.5,1.9c6.3,3.4,13,5.6,20.1,6.7l16.3,2.4,19.4,4.2ZM536.5,386.9c8.6-1.5,17.3.8,24,6.4s10.5,13.8,10.6,22.5v24.4c-.1-.9-.2-1.8-.4-2.6-.7-3.2-1.2-6.6-2.5-9.7-1-2.5-2.5-4.9-4.3-6.9-3.4-3.8-8.1-6.4-13.2-7.2-5.2-.8-10.6.3-15.1,3.2,0,.1-.2.1-.3.2-.2.1-.3.2-.5.3-17.5,10.1-53.7,32.3-99.6,67.6-53.8,41.4-91.7,88.5-102,101.9-1.6,2.1-4.2,3.3-6.8,3.1-4-.3-7.9-2-11.5-5.1-5.3-4.6-6.7-10.3-6.9-14.3-.1-2.1.6-4.1,2-5.6,44.9-51,85.8-88,112.3-110.1,25-20.9,42.2-32.7,46.2-35.5h0l.4-.3c.3-.2.4-.3.5-.3h0l.8-.6c22.9-17.2,45.2-27.7,66.3-31.4ZM314.8,554.9q0-.1,0,0c-.5-1-.7-2-.6-2.9,0-1.3.5-2.4,1.1-3.5,1.3-2.2,2.5-4.3,3.8-6.5.4-.6.8-1.3,1.1-1.9,2.1.3,4.2,0,6.3-.3.9-.2,1.9-.4,2.8-.7-4.7,5-9.6,10.3-14.5,15.8ZM349.8,517.7c.6-4.2.4-8.6-.8-12.7-.5-1.6-1-3.3-1.8-4.8l-.6-1.2c0,0-.1,0-.1-.2h0c.1,0,.2-.2.3-.3.2-.2.3-.4.5-.6.5-.6.9-1.2,1.4-1.8,1.3-1.6,2.5-3.2,3.8-4.8,1.2-1.5,2.3-3,3.5-4.5.7-.9,1.3-1.8,2.1-2.6,1.1-1,2.6-1.7,4.1-1.9,1.6-.2,3,.2,4.4.9,3.7,1.9,7.3,3.8,11,5.8.3.2.7.4,1,.6-9.1,8.5-18.8,17.9-28.8,28.1ZM359.5,434.3h0q.1,0,0,0h0ZM358.6,430.4L118.7,207.7c-19.9-18.5-51.5-16.9-70.5,3.5-19,20.5-18.3,52.1,1.6,70.6l237.9,221c-.2.4-.3.8-.5,1.2l-2.5,6.7L46.6,289.5c-23.5-21.8-24.8-58.6-3-82s58.6-24.8,82-3l238.3,221.3-5.3,4.6ZM50.7,280.9c-19.4-18-20.1-48.8-1.6-68.7,18.5-19.9,49.3-21.5,68.7-3.5l239.4,222.2-1.5-.4c-2.1-.6-4.3,0-5.7,1.6l-13.8,14.8-4.1-1.8c-2.5-1.1-5.5-.3-7,2l-35.9,53c-.3.5-.6,1-.9,1.5L50.7,280.9ZM352.2,434.2c.7-.7,1.7-1,2.6-.7l3,.9,23.8,8c.5,2.2.9,4.4,1.4,6.6.6,2.7,1.1,5.4,1.7,8.1.2.9.3,1.8.9,2.6.5.6,1.1,1.1,1.7,1.5,2.3,1.9,4.6,3.7,6.9,5.6.9.7,1.7,1.4,2.3,2.4.4.6.7,1.3.7,2s0,.7-.1,1c-.1.2-.2.4-.3.6-.9.8-1.8,1.6-2.8,2.5l-56.5-25.3,14.7-15.8ZM394.6,366c0-.4,0-.7.1-1.1.3-1.4,1.4-1.9,2.7-1.9s1.2,0,1.9.1l20.5,3.9c1.6.4,3,1,4.1,2.3.9,1,1.6,2.4,1.8,3.8v1.2c0,.2,0,.4-.1.7-.1.5-.2,1.1-.2,1.6-.1.5-.1.9-.2,1.4-.6,1.9-1.1,4-2.1,5.7-1.3,2.1-3.3,2.4-5.5,2.3l-17.2-3c-1-.3-2.1-.6-2.8-1.3s-.8-1.1-1-1.8l-2-13.9ZM394.2,363.6h0ZM426.1,369.4h0ZM422,386.7h0ZM399,382.6h0ZM422,386.8c-.2.6-.5,1.1-.7,1.7-1,2.5,0,5.1.5,7.7.4,1.9.9,3.8,1.3,5.7h0c2.3,9.4,5,18.6,8.3,27.6,1.3,4.7,2.8,9.4-.7,13.7-1.9,2.3-4.4,4.1-6.7,6.1-1.2,1-2.4,2-3.7,3.1-2.1,1.7-4.3,3.6-6.5,5.5-5.7-16.9-9.7-33.3-12.4-45.4l-4.5-30.1,25.1,4.4ZM531.8,351.4h0q.1,0,0,0h0ZM531.8,350.6c0,.2,0,.3,0,.5-.3.6-1,.7-1.5.7h-.4l-19-2.8c-1.8-.5-3.2-1-4.3-2.9-.4-.7-.7-1.3-1-2-4.1-10.3-14-22.1-16.1-24.6,1.9-1.1,3.9-2.2,5.9-3.2,3.5-1.8,7.2-3.3,10.9-4.5.9-.3,2-.8,2.9-.7.9.1,1.4.6,2,1.2.8.8,1.5,1.6,2.2,2.4,4.9,5.5,9.3,11.5,12.7,18,2.1,4,3.8,8.2,4.9,12.5.3,1.1.5,2.2.7,3.3,0,.5.2,1.1.3,1.6-.2.1-.1.3-.1.5ZM488.4,319.8c2.1,2.5,14.6,17.3,17.3,28.2,0,.4,0,.9-.4,1.1l-16.5,14.5c-.4-.5-.8-.9-1.3-1.4-3-3.3-6-6.6-9-10-3-3.3-6-6.6-9-9.9-1.6-1.8-3.2-3.5-4.8-5.3,3.1-2.6,6.2-5.1,9.4-7.6,4.6-3.4,9.3-6.7,14.3-9.6ZM464.2,337.5c1.1,1.3,2.3,2.5,3.4,3.8,2.7,3,5.5,6,8.2,9.1,3.1,3.4,6.1,6.8,9.2,10.2,2.2,2.4,4.4,4.9,6.7,7.3.4.4.8.9,1.2,1.3.6.7,0,1.2-.5,1.7-.7.8-1.5,1.6-2.2,2.4-.6.6-1.2,1.5-2.1,1.5h-.2l-30.3-31.2c2.1-2.1,4.3-4.1,6.6-6.1ZM475.8,376.7h0ZM454.2,346.6c.3-.2.6-.5.8-.6.7-.4,1.5-.6,2.4-.4,1.3.2,2.4,1,3.3,1.9l23.1,23.8c.2.2.3.4.5.5.3.3.8.8.9,1.2.4,1.3-.3,1.5-1.1,1.6-1.2-.1-2.5-.2-3.7-.3-.9-.1-1.7-.1-2.6-.2-.6,0-1.1,0-1.6-.5-.5-.4-1-.9-1.4-1.3-2.7-2.5-5.3-4.9-8-7.4-3.4-3.1-6.7-6.2-10.1-9.3-2-1.8-3.9-3.7-5.9-5.5,1.1-1.3,2.3-2.4,3.4-3.5ZM439.2,362.2c1.5-1.7,3-3.4,4.5-5,2.1-2.3,4.3-4.5,6.6-6.8,1.5,1.4,3,2.8,4.5,4.1,3.3,3.1,6.6,6.1,9.9,9.2,3,2.8,6,5.6,9,8.4.8.7,1.5,1.4,2.3,2.1.2.1.3.3.5.4l-12,10.6c-.3-.3-.6-.6-.9-.9-.6-.6-1.2-1.1-1.8-1.7-.5-.5-1-1-1.7-1.1-.5-.1-.9.1-1.3.3-.7.2-1.4.5-2.1.7-1.1.4-2.2.7-3.2,1.1-2.5-2.4-5.1-4.7-7.6-7.1-.3-.3-.6-.5-.8-.8.2-1,.5-2,.7-3,.2-.7.3-1.3.5-2,.1-.5.2-.9.1-1.4-.2-.9-1.2-1.6-1.9-2.3-1.1-1.1-2.2-2.1-3.3-3.2-.8-.4-1.4-1-2-1.6ZM444.2,375.9c2.7,2.5,5.3,4.9,8,7.4.4.3.8.7,1.1,1q0,.1.2.2l8.9,13.8c-.2,0-.3-.1-.4-.2-.3-.2-.5-.5-.8-.7-1.1-1-2.3-2.1-3.4-3.1-3.2-3-6.4-6-9.6-9-1.2-1.1-2.5-2.3-3.7-3.4-.6-.6-1.7-1.3-1.5-2.3.3-1.3.7-2.6,1.2-3.7-.1-.1,0,0,0,0ZM462.9,398.1h0ZM463.7,397.9c0,0-.2.1-.3.1-.2.1-.4,0-.6,0l-.6-.3c0-.1-.2-.2-.3-.3l-8.3-12.8h0c2-.7,4-1.3,6-2,.7-.2,1,0,1.4.4.5.5,1.1,1,1.6,1.5,3,2.8,6,5.5,8.9,8.3-2.5,1.7-5.2,3.4-7.9,5.1ZM469.4,389.9c-.9-.8-1.7-1.6-2.6-2.4,0-.2-.3-.4-.4-.6-.3-.4-.3-.9-.2-1.4s.4-1,.7-1.4c0-.1.2-.2.2-.3l6.2-5.4c1.8-1.3,3.5-2.3,5.8-2.6,2.1-.3,4.1-.3,6.2-.3.7.1,1.4.1,2.1.2.7.1,1.3.1,1.9-.5,1.2-1.2,2.4-2.5,3.5-3.8.9-1,.7-2.5-.2-3.5-1.1-1.2-2.2-2.4-3.3-3.6l14-12.3c2.4-1.6,5.1-2.6,8-2.5l13.9,2.1c.5.1,1.1.2,1.6.3.8.2,2.6.7,1.7,2.3,0,.1,0,.2-.2.2-1.6,1.1-3.1,2.2-4.7,3.4-5.7,4.2-11.2,8.6-16.6,13.2-7.9,6.7-15.5,13.7-22.9,20.9l-3,3c-.6.6-1.3,1.2-2,1.5-.5.3-1.1.4-1.7.3-.3,0-.5-.1-.8-.2,0-.1-.2-.1-.3-.2-2.3-2.1-4.6-4.2-6.9-6.4ZM477.4,397.3h0ZM465.8,412.7c.3,1,.8,1.9.6,3,0,.6-.4,1.2-.8,1.7l-.7.7c0,.1-.3.2-.4.3-2.7,1.9-6.9,4.9-12.5,9-.3.2-.6.3-.9.1-.2-.2-.4-.4-.5-.7l-15-38.4h0c.6,0,1.3.5,1.9.7,1.2.5,2.4,1,3.7,1.4,2.3.9,4.5,1.8,6.8,2.7,1.1.4,2,1.5,2.8,2.4,3.8,3.8,7.6,7.6,11.4,11.5l1.5,1.5c.4.4.7.9.9,1.4.3.9.8,1.8,1.2,2.7ZM450.8,427.6h0ZM435,389.4h-.1.1ZM432.6,389.9c.2-.1.4-.2.7-.3.5-.2,1-.3,1.4-.1.3.1.5.2.8.3.2.2.4.4.5.6l13.4,34.2c0,.2,0,.4.2.5.2.6.4,1.3.4,1.9s-.2,1.2-.5,1.7-.7.9-1.1,1.3c-2.9,2.2-6,4.6-9.4,7.3-.2.1-.5.2-.7.3-.6.2-1.2.1-1.7-.2-.8-.5-1.1-1.2-1.5-2-3.4-8.7-6.3-17.6-8.8-26.6-.6-2.4-1.2-4.7-1.8-7.1-.2-1-.3-2-.5-3.1-.2-1.3-.7-2.9.5-3.9.5-.5,1.3-.8,1.9-1.1,1.2-.7,2.4-1.4,3.6-2.1.8-.6,1.7-1.1,2.6-1.6ZM392.6,476.5q.1,0,0,0,.1,0,0,0c.1,0,0,0,0,0ZM393.1,452.1c0-.1,0-.2-.1-.2-.1-.7-.3-1.4-.4-2.1-.2-1.3-.5-2.6-.7-3.9l11.6,3.9c.4.2.9.4,1.3.6.9.5,1.6,1.3,2.1,2.2.7,1.2,1,2.5,1.6,3.8.5,1.6,1.1,3.1,1.6,4.7-.5.5-1.1.9-1.6,1.4s-.2.2-.3.2c-.2.1-.5.2-.7.2-.6.1-1.1,0-1.7-.2-.5-.2-.9-.5-1.3-.8-.8-.6-1.5-1.3-2.3-1.9-2.7-2.3-5.5-4.7-8.2-7-.2-.3-.6-.6-.9-.9ZM399.3,429.3c.6,1.8,1.2,3.6,1.8,5.4,1.2,3.5,2.4,7,3.6,10.6.2.7.5,1.4.7,2,0,.2.1.4.1.6,0,.3.1.6-.1.8-.2.3-.6.4-.9.4-.5,0-1-.1-1.5-.2l-11.2-3.8c-.3-1.7-.6-3.4-.9-5.2-.1-.4-.1-.7.2-1,.3-.4.5-.7.8-1.1,1.1-1.4,2.2-2.9,3.3-4.3.9-1.2,1.8-2.4,2.7-3.6.1-.1.1-.2.2-.3.4-.3.7-.4,1.2-.3ZM405.5,449.4h0ZM436.2,437.6h0ZM437.9,438c0,0,0,0,0,0,0,0,0,0,0,0ZM400.5,414.1c2.7,12.1,6.7,28.2,12.3,44.7-.7.6-1.4,1.2-2.1,1.8-.2-.6-.4-1.1-.6-1.7-1.2-3.4-2.3-6.9-3.5-10.3-1.3-3.7-2.6-7.5-3.8-11.2-.8-2.4-1.6-4.8-2.4-7.1-.1-.2-.1-.4-.2-.6-.3-.8-.8-2.1-1.7-2.4-.7-.2-1.1.2-1.5.7s-.8,1-1.1,1.5c-1.2,1.6-2.3,3.1-3.5,4.7-.7,1-1.5,1.9-2.2,2.9-.5.8,0,2.2.1,3,.3,1.9.7,3.7,1,5.6.3,1.6.6,3.2.9,4.8.2,1.2.6,2.4,1.6,3.2,2.3,2,4.6,4,6.9,5.9,1.9,1.6,3.8,3.2,5.7,4.9-2,1.8-4.1,3.6-6.3,5.5-3.4-2.7-6.7-5.4-10.1-8.1-.7-.6-1.4-1.1-2.1-1.7-.8-.6-1.3-1.4-1.5-2.4-.5-2.2-.9-4.5-1.4-6.7-.6-3.1-1.3-6.1-1.9-9.2-.2-.8-.4-1.7-.5-2.5-.3-1.2-.1-2.3.7-3.3,2.8-3.7,5.7-7.2,8.5-10.9,2.5-3.2,5-6.4,7.6-9.7l1.1-1.4ZM549.1,340.3l-2.9,3.1c-.5.5-1.1,1-1.8,1.4-3.9,2.2-7.8,4.7-11.7,7.3-.5-5.8-2.4-11.4-4.8-16.7-2.4-5-5.3-9.8-8.7-14.2-2.4-3.2-4.9-6.2-7.6-9.1-.6-.6-1.2-1.3-1.9-1.7-1.3-.7-2.6-.2-4,.2-2.5.8-4.9,1.7-7.3,2.7-5,2.2-9.8,4.8-14.4,7.8-4.7,3-9.3,6.3-13.6,9.7-4.1,3.3-8.2,6.7-12.1,10.3-3.4,3.1-6.7,6.2-9.9,9.5-2.3,2.4-4.6,4.8-6.9,7.2-1.1,1.2-2.2,2.3-3.2,3.6,0,.1-.1.1-.1.2-.1.2.1.5.2.6,1.6,1.6,3.2,3.2,4.8,4.7.6.6,1.4,1.2,1.9,1.9.3.4.2.8.1,1.2-.1.6-.3,1.2-.4,1.8-.2.9-.4,1.8-.6,2.7-.5,1.6-1,3.2-1.5,4.9-.2.5-.1,1,.3,1.5.2.2.5.4.7.7,1.1,1.1,2.3,2.1,3.4,3.2,3.3,3.1,6.6,6.1,9.9,9.2,1.2,1.1,2.4,2.3,3.7,3.4.7.6,1.4,1.5,2.4,1.2.4-.1.9-.5,1.3-.7.9-.5,1.7-1.1,2.6-1.6,1.7-1,3.3-2.1,5-3.1h0c.9.9,1.9,1.7,2.8,2.6,1.1,1,2.2,2.1,3.3,3.1h0c-7.2,7.3-11.5,12.2-11.6,12.3h0c0,.1,0,0,0,0-.3-.8-.6-1.7-1.2-2.3l-1-1-11.5-11.5-2-2c-.5-.5-.9-.9-1.5-1.2-2-.8-4-1.6-6-2.4-2.1-.8-4.1-1.7-6.2-2.4-1.2-.4-2.4-.3-3.5.4-.9.5-1.8,1.1-2.8,1.6-2.2,1.3-4.5,2.6-6.7,4-.4.2-.8.5-1,.9-.1-.6-.3-1.2-.4-1.7-.3-1.5-.6-2.9,0-4.5.9-2.3,1.9-4.6,2.8-6.9,1.5-3.8,1.8-7.8,2.2-11.8.1-1.5.6-2.7,1.5-3.8.5-.6,1-1.2,1.5-1.8,3.6-4.4,7.4-8.6,11.4-12.6,6.3-6.5,13.1-12.5,20.1-18.3,9.2-7.4,18.8-14.2,29-20.3,5.7-3.4,11.6-6.6,17.5-9.6,3.2-1.6,6.4-3.1,9.6-4.5,1.7-.8,3.5-1.5,5.3-2.2.8-.3,1.6-.7,2.4-1,.9-.4,1.8-.8,2.9-.5.3.1.7.3,1,.5.2.2.4.4.5.6,11.7,14.2,17.9,28.8,20.5,36.2.8,2.2.2,5.1-1.7,7.2ZM404.8,349.4c.7-.8,1.7-1.3,2.8-1.5l9.2-1.6c3-.5,5.8-1.9,8-4,30.4-28.2,64-47.7,70.4-51.3.6-.3,1.2-.6,1.8-.7l9.6-2.5c1.5-.4,3.1-.3,4.6.3l15.9,6.2,1.2.6c-2.2-.1-4.3,1.1-6.3,1.9-6.6,2.7-13.1,5.8-19.4,9.1-11.4,5.9-22.3,12.7-32.6,20.3-8.2,6-16.1,12.6-23.5,19.6-5.1,4.8-10.1,9.9-14.7,15.3-1.3,1.5-2.6,3.1-3.9,4.7-.6.7-1.1,1.4-1.4,2.1l-32.3-6.1c.2-.8.6-1.6,1.2-2.3l9.4-10.1ZM384.2,412c1.3-1.2,3.3-1.4,4.8-.6l4.4,2.3c.9.5,1.8,1,2.3,1.8.3.5.5,1.1.4,1.7,0,.3-.1.5-.3.8,0,.1-.1.1-.1.2-1.3,1.7-2.7,3.4-4,5.1-3.2,4.1-6.5,8.2-9.7,12.4-.7.8-1.1,1.8-1.1,2.9s.2,1.3.4,2c.1.4.2.7.2,1.1l-19.6-6.6c-.3-.1-.6-.2-.8-.4-.5-.2-.9-.5-.8-1.1.1-.4.3-.7.6-1l23.3-20.6ZM369.4,419.8l2.4-1-2,1.8-.6-.6.2-.2ZM366.1,410.3l-1.7,2.4-.5-.2-.3-1.5,2.5-.7ZM363,411.2l-.4.8-.9-.4,1.3-.4ZM353.1,404.2v1c-.1,0-.9-.7-.9-.7l.9-.3ZM332.6,384.6h0c-.2.3-.4.4-.5.6-.1-.1-.1-.2-.2-.4l.7-.2ZM322.4,375.6l.4-.3v.9c-.1,0-.4-.2-.4-.2-.1,0-.2-.1-.2-.1-.1,0,0,0,.2-.3ZM315.9,369.1h-.2.2ZM316.5,366.9l-.2.8-1.7-.8h1.9ZM305.1,358.6l-.5,1.3h-.1c-.2-.2-.6-.5-.9-.9l1.5-.4ZM276.1,330.9l-.3.8-.9-.4c-.9-.4-1.5-.7-2-1.1l3.2.7ZM250.7,308l-.5,1.4c-.4-.4-.8-.8-1-1.4h1.5ZM245.6,303.5l.8-.7-.6,1.4h-.2c-.2-.2-.4-.2-.5-.3.2,0,.3-.2.5-.4ZM240.4,300.5c.1.3.1.5,0,.8-.1.5-.5.9-.9,1l.6-1.8h.3ZM212.5,272.8l-.2,1.5c-.2-.3-.2-.7-.1-1.5h.3ZM211,269.9l-.4.2-1.6-.6,2,.4ZM189.2,252.6v.3c-.2,0-.2-.1-.3-.1l.3-.2ZM169.6,231.7l-.3.5v-.5h.3ZM168.5,232.6c.2.1.3.1.5.2,0,0,0,.1-.1.1l-.4-.3q-.1,0,0,0ZM158.4,220.4l-1.2,2.9h-.1q-.9-.9-.3-1.8l.8-1.2h.8ZM139.2,198.9l-3.7,1.7c-.9.4-1.3.5-1.5.5-.1-.1-.2-.4-.5-1h-.1c0-.1,5.8-1.2,5.8-1.2ZM132,199.9c0,.1.1.2.1.3h.3c.1.2.1.4.1.6h-.4c0,.2-.1.3-.2.5-.2.4-.6.6-1,.7.1.1.1.3.2.4h-.5l.2-.3h0v-.2h.1l.4-.7h.1c0-.1.4-.8.4-.8h0l.2-.5q-.1,0,0,0ZM130.8,196.7v.3c-1-.2-1.6-.3-2.1-.7l2.1.4ZM122.4,190.3c-1.7-.1-2.6-.2-3.3-.5l2.6-1.6.7,2.1ZM121.1,186.5l.5,1.5h-2.9l2.4-1.5ZM116.6,188.7c0,.1.1.1.1.2h-.3v-.2s.1,0,.2,0ZM89.6,180.4c-.1.2-.2.4-.3.5,0,0-.1,0-.1-.1l.4-.4ZM85.6,180.7h-.2c-.2.1-.3.2-.4.2v-1.6c.1,0,.6,1.4.6,1.4ZM69.9,182.4v.4h-.3l.3-.7v.3ZM50.1,188.6l1.4,1.5-.2.2h-.5c0,.1-.7-1.7-.7-1.7ZM18.9,244.6h.2c0-.1,0,0,0,0,0,0,0,0-.2,0ZM17.6,253.4l2.1-1.2c0,.2,0,.5,0,.7v.2h-.7c0,.1.3,1,.3,1l-1.8-.7ZM31,283.2c0-.1.2-.2.3-.3l-.6.8c0-.1.2-.3.3-.5ZM36.2,290.5h-.4c0-.1,0-.2,0-.4l1.4-.6v.2c0,0-.4.4-.4.4v.2h0c-.2.2-.4.2-.6.2ZM37.6,299l1.8-2.1c0-.1.2-.2.3-.3,0,.1,0,.2,0,.4l.8,2.5-3-.5ZM43.2,297.1c0,0,0,.1-.2.1v-.2c-.6.3-1.2.2-1.6-.1h0s0,0,0-.1h.2c0-.1,0-.1,0-.1l1.1-.6h0l.4-.2h.3c0-.1.7-.5.7-.5h.2c0,.5-.3,1.3-.9,1.7ZM43.1,299.6v-.2l.2.2h-.2ZM43.3,302.4v-.8c0,0,1.3.6,1.3.6l-1.3.2ZM47.7,309.8l2.4-2.3,1,.5.3,1.4-3.7.4ZM53.7,315.4v-3.5c0,0,1.4.2,1.4.2l.7,1.1v-1c0,0,0,0,0,0,.9.2,1.5.3,1.7.4,0,.2,0,.7-.3,1.9l-.3,1.3-3.3-.4ZM59.7,316.2l.3-.4c0-.2.2-.3.3-.5,0,.1,0,.2.2.4l.4.7-1.2-.2ZM64.4,319.8l.6.3c.4.2,1.5.6,1.6.8,0,.1,0,.5-.6,2.2l-.7,2-.9-5.3ZM75.5,331.9l-.8-2.8c.7.2,1.1.4,1.2.5.1.1.2.5.1,2.1v.3h-.5ZM96.8,349.1h0q1.7,1,.8,3.3v.3c-.1,0-.8-3.6-.8-3.6ZM100.7,353.6c.5-.4.8-.5.9-.6.1.1.3.3.4.5h-1.3ZM105.6,357.8v-.8c.3.3.5.5.6,1l-.6-.2ZM168.4,417.4l.9-1.5s0-.1.1-.1c.2.2.3.3.5.5l-1.5,1.1ZM193.2,439.6v-.2q.2-.1.3-.2l.3.2-.6.2ZM217.9,462l.2-1c.1.1.3.3.3.4s-.1.2-.4.5h-.1ZM247.8,486.9h.3v.3h.1q0,0,.1-.2h-.1v.2l-.4.6h0c0,0-.3.4-.3.4-.1-.2-.1-.5.1-.8,0-.3,0-.4.2-.5ZM248.1,486.6s.1,0,0,0h0c0,0,0,0,0,0ZM246.9,488.6l.2-.3h.2c0,0-.4.3-.4.3ZM252.3,495.6l.3-.8.3.8h-.6ZM282.4,517c-.4-.5-.8-.9-1.4-.9-.3-.3-.6-.4-1.1-.5l-.3-.6c-.4-.6-1.1-.9-1.8-1,0-.9-.5-1.5-.7-1.8-.6-.7-1.3-1.2-2.1-1.7-.2-.8-.9-1.6-1.8-2.3-.7-.6-1.2-1.2-1.8-1.4-1.3-1.4-2.3-2.2-4.5-2.9.3-1.3-.7-2.2-1.4-2.8-.5-.5-1-.9-1.6-1.2-.3,0-.6-.2-.8-.2-1-1.5-2.1-2.4-4.3-3.2.3-1.3-.7-2.2-1.4-2.9h-.2c-.2-.2-.7-.6-1-.9l-.8-.7c-.2-.2-.5-.5-.8-.6-.3-.3-.6-.6-1-.7-.3-.4-.7-.6-1.3-.6-.1-.3-.3-.5-.6-.8-.3-.3-.7-.5-1.1-.7v-.2c0-.6-.3-1-.7-1.5-.2-.2-.4-.5-.6-.6-.2-.3-.5-.6-1-.9-.3-.2-1-.5-1.9-.4-.7-1.8-1.5-2.8-2.8-3.8-.2-.4-.5-.9-1.2-1.3-.3-.2-.7-.4-.9-.4-.4-.7-1-1.4-2-1.4-.2-.2-.4-.4-.7-.6q-.1,0-.2-.1h0c-.2-.3-.4-.6-.7-.8-.1-.7-.7-1.1-1.3-1.3-.3-.3-.8-.5-1.5-.6-.3-.1-.6-.1-1-.1.1-.2.2-.5.2-.7.2-1.3-.7-2.1-1.3-2.6-.5-.5-1-1-1.6-1.3-.4-.2-.7-.3-1.1-.3-.9-1.4-1.8-2.3-3.2-3-.1-.9-.7-1.4-1.2-1.7-.2-.2-.5-.4-.8-.5-1-1.4-2.1-2.2-3.9-2.6v-.3c0-1.3-.9-2.2-1.6-2.8-.7-.7-1.5-1.4-2.4-1.5-1.1-1.6-2.1-2.5-3.8-3.5-.1-.9-.9-1.7-1.7-2.4-.7-.6-1.4-1.3-2.3-1.3-1.2-1.8-2.2-2.7-3.8-3.8-.2-.7-.9-1.4-1.6-2.1s-1.6-1.4-2.6-1.5c-.8-1.4-1.7-2.2-3.1-2.8,0-.8-.5-1.3-1.1-1.6-.2-.4-.6-.8-.9-1.1-.6-.6-1.4-1.4-2.7-1.3-.2,0-.3,0-.5.1-.3-1.6-1.1-2.6-2.2-3.5-.2-.4-.5-.9-1-1.2-.3-.2-.6-.4-1-.5-.9-1.2-1.9-1.9-3.4-2.2v-.3c-.1-.7-.5-1.1-1-1.5-.1-.3-.4-.5-.8-.8-.2-.4-.5-.8-.9-1.1-.7-.6-1.5-.9-2.5-.9.1-1.6-.9-2.5-1.7-3.1-.3-.3-.8-.9-1.6-1.2-.3-.1-.6-.2-.9-.2-.8-1.5-1.7-2.3-3.2-2.9,0-1.2-.9-2-1.5-2.6s-1.5-1.4-2.8-1.2h0c-.5-1.4-1.3-2.3-2.4-3-.1-.7-.6-1.1-1-1.4-.2-.3-.5-.5-.9-.8-.6-.6-1.5-1.5-2.8-1.3h-.2c-.5-1.6-1.2-2.5-2.3-3.4-.1-.4-.4-.8-1-1.2s-.6-.3-.8-.4c-.9-1.2-1.9-1.9-3.4-1.9.1-1.3-.6-2.2-1.6-3-.3-.6-1-1-1.2-1.1-.3-.1-.5-.2-.7-.2-.9-1.2-1.7-1.9-3.1-2.4,0-.7-.4-1.1-.9-1.5-.2-.5-.6-.9-.9-1.2-.3-.4-1-1-1.9-1.1h-.5c-.6-1.3-1.3-2.1-2.4-2.7-.1-.6-.6-1.1-1.1-1.4h0c-.2-.2-.4-.3-.6-.4-.2-.2-.4-.5-.6-.7-.9-.8-1.8-.9-2.7-.7,0-1.5-.7-2.5-2-3.3-.2-.8-.8-1.4-1.4-1.9-.6-.5-1.3-1.2-2.2-1.2-.7-1.1-1.4-1.8-2.5-2.2-.1-.6-.4-1-.8-1.4-.1-.3-.4-.5-.7-.6-.3-.5-.7-.8-1-1-.7-.4-1.3-.5-1.9-.4-.2-1.4-1-2.3-2.1-3.1-.2-.7-.8-1.3-1.4-1.8-.6-.5-1.2-1.1-1.9-1.3-.9-1.1-1.8-1.7-3.1-1.6,0-1.1-.5-1.9-1.4-2.6-.1-.3-.4-.7-.9-1.1-.2-.2-.4-.3-.6-.4-.6-.7-1.4-1.4-2.5-1.4h-.3c-.3-1.3-1-2.1-2.1-2.8-.1-.8-.8-1.4-1.2-1.8s-1.1-1-1.7-1.2c-.6-.7-1.3-1.3-2.3-1.4h-.6c-.1-1.2-.7-2.1-1.7-2.8-.2-.6-.8-1.2-1.2-1.6-.6-.6-1.2-1.1-1.8-1.7s-1-1-1.8-1.1c-.8-1-1.5-1.6-2.7-2,0-.9-.5-1.5-1.1-2-.1-.3-.4-.6-.8-.8-.2-.1-.3-.2-.5-.3-.6-.7-1.3-1.3-2.2-1.2-.5-1.1-1.2-1.8-2.2-2.4-.1-.8-.8-1.3-1.3-1.7-.3-.4-.7-.8-1.4-1.4-.4-.4-.9-.9-1.5-1-.5-.6-1.2-1.2-2.1-1.2h-.1c-.3-.9-.8-1.5-1.7-2-.1-.8-.7-1.4-1.2-1.8-.3-.4-.7-.8-1.3-1.3-.5-.5-1-.9-1.5-1.3-.3-.3-.8-.8-1.5-.9-.5-.5-1.1-.9-1.8-1h-.3c-.1-.8-.6-1.5-1.3-2-.1-.7-.7-1.2-1.2-1.6-.3-.4-.6-.7-1-1.1l-1.3-1.2c-.5-.5-.9-.8-1.2-1-.3-.4-.8-.8-1.5-.9-.4-.5-.9-.8-1.6-.9h0c0-.2-.2-.5-.3-.7-.2-.4-.6-.7-.9-.9,0-.6-.5-1-.9-1.4-.2-.5-.6-.8-.8-1l-2.2-2c-.2-.2-.6-.6-1.1-.7-.3-.4-.8-.7-1.3-.8-.3-.3-.6-.6-1.1-.7q0,0-.2-.1c0-.1,0-.2-.2-.3-.2-.3-.4-.6-.7-.8,0-.5-.3-.8-.7-1.1-.2-.4-.5-.7-.8-.9-.2-.3-.4-.5-.7-.7l-4.6-4.3c0-.1-.2-.2-.3-.3,0-.1-.2-.2-.3-.3,0-.1-.2-.2-.3-.2l-.2-.2h0c0-.1,0-.2,0-.2-.3-.3-.6-.4-1-.5-.3-.4-.7-.7-1.3-.8h0c0-.2,0-.3-.2-.5-.2-.4-.5-.6-.8-.8,0-.5-.3-.9-.6-1.2,0-.3-.3-.6-.6-.9,0-.3-.3-.5-.4-.6-.3-.3-.6-.8-1.1-1-.5-.6-1-1.1-1.7-1.2-.2-1-.6-1.7-1.2-2.4,0-.6-.4-1.2-.8-1.7,0-.4-.4-.8-.6-1.1h0c-.3-.5-.6-1.1-1.2-1.4-.2-.7-.6-1.3-1.4-1.6h0c0-.9-.3-1.5-.9-2.2.2-.7,0-1.4-.3-1.9,0-.5-.2-.8-.4-1,0-.2-.2-.4-.4-.6-.2-.6-.5-1.4-1.2-1.7,0-.5-.2-.9-.4-1.4-.2-.3-.4-.5-.6-.7q0-.1,0-.2c.3-.7,0-1.4-.3-2,.2-.6,0-1.3-.2-1.8-.2-.6-.4-1.3-.5-2,0-.5-.3-1.1-.7-1.5,0-.7-.3-1.5-1-2,.2-.8.2-1.6-.3-2.4.5-.7.4-1.5.2-2.2,0-.6,0-1.2,0-1.6v-.4c0-.6,0-1.1-.2-1.6,0-.5,0-1.4-.6-2,0-.5.2-1.1,0-1.6,0-.3-.2-.5-.4-.8,0-.1.2-.2.2-.3.4-.5.4-1.1.4-1.6.2-.4.3-.8.3-1.2s0-.4,0-.6c0-.7.2-1.5-.3-2.2h0c.4-.9.4-1.8,0-2.7.7-.5.9-1.3.9-2.1.3-.5.5-1.1.6-1.6h0c0-.6.2-1.3,0-1.9.3-.7.5-1.4,0-2.2,0,0,0-.1,0-.1.6-.6.9-1.4.8-2.3.7-.4,1-1.1,1.1-1.7.4-.5.5-1.1.4-1.6,0-.1,0-.2,0-.2.3-.5.6-1.1.5-1.8,0-.2,0-.4,0-.5.2-.1.4-.3.6-.5.4-.4.6-1,.7-1.5.7-.3,1.1-1,1.3-1.5h0c.2-.4.3-.8.5-1.1,0-.2,0-.4.2-.6.4-.6.9-1.4.6-2.2.8-.6,1.2-1.4,1.4-2.4.8-.1,1.3-.7,1.6-1.2.4-.2.8-.7.9-1.4h0v-.4c.5-.4.9-.8,1.1-1.5,0-.2,0-.5,0-.7.2,0,.4-.1.6-.2.6-.3,1-.8,1.3-1.4.7-.2,1.3-.8,1.6-1.2l-1.1-1.1,1.2,1c.3-.3.7-.8.9-1.4.6-.4,1-.9,1.1-1.7.3-.1.6-.3.9-.5.3-.3.6-.6.8-.9.8,0,1.3-.4,1.8-.9.5-.1,1-.5,1.3-.8l-1-1.2,1,1.2c.3-.3.9-.7,1.1-1.3.5-.2,1-.6,1.2-1.2,0-.1,0-.2,0-.3.3,0,.5-.1.8-.2.4-.2.7-.5.9-.8.7.1,1.2-.2,1.6-.6.4-.1.8-.3,1.2-.7,0-.1.2-.2.3-.3.7-.3,1.4-.7,1.6-1.5h0c.9,0,1.6-.3,2.2-1,.8.3,1.5-.1,2.1-.5.6-.1,1.1-.3,1.6-.5h0c.4-.2,1.1-.4,1.4-1,.6-.1,1.3-.4,1.7-1,0-.1,0-.2.2-.3.3.1.5.1.8.1.6,0,1.1-.2,1.6-.4.6.3,1.3.1,1.9-.1.6,0,1.1-.3,1.3-.4l.3-.3c.6,0,1.2-.1,1.7-.6l.3-.3c.2.1.5.1.7.2.5,0,1-.1,1.5-.3.7.3,1.4.2,1.9.1.3,0,.6-.1,1-.1.3-.1.6-.1.8-.2.6,0,1.4-.1,1.9-.6,1,.1,1.8,0,2.5-.6h.1c.7.7,1.5.7,2.2.6.5.3,1.2.3,1.7.3v-1.6,1.6c.5,0,1.3,0,1.9-.4.6.2,1.1.2,1.7,0,.2-.1.4-.2.6-.3.1.1.3.2.5.3.5.3,1,.4,1.5.4.4.3.9.4,1.3.3h.5c.6.2,1.3.3,2,0,.1,0,.2-.1.3-.2.7.5,1.5.7,2.3.5.5.7,1.2.9,1.8,1,.4.2.9.4,1.4.3.2,0,.3,0,.5-.1.6.3,1.2.5,1.9.4.2,0,.3-.1.4-.1.2.2.3.4.6.5.4.3.8.4,1.3.5.3.4.7.6,1.1.6.2.1.4.2.6.2.7.5,1.4.6,2.1.4h.1c.6.6,1.3.9,2.1,1,.2.4.5.6.8.8.2.2.5.4.7.4.4.5,1.1.7,1.7.7.9.7,1.8,1.1,3,1.3.2.8.8,1.3,1.6,1.7.3.4.7.7,1.1,1l.3.2c.6.4,1,.7,1.3.9.5.4,1.2.9,1.9,1,.7.9,1.5,1.4,2.7,1.8,0,.6.3,1.1.8,1.6.1.2.3.3.4.5.1.2.3.4.6.6.3.3.7.7,1.3.8.3.4.8.8,1.3,1,.3.1.6.2,1,.2,0,1.1.7,1.9,1.5,2.5.2.5.6.9.8,1.1.3.3.6.5.8.7.6.6,1.4,1.4,2.7,1.4s.3,0,.4-.1c.1.6.3,1.1.6,1.6.4.7.8,1.1,1.4,1.3.2.2.4.5.8.6,0,.1.1.1.2.2.3.3.5.4.8.5.1.1.2.3.3.4.2.2.3.3.5.4.2.4.4.7.7.9.1.5.6,1,1.2,1.3.4.2.8.4,1.3.6h0c0,.9.5,1.4,1,1.7.2.3.5.5.8.7.2.4.5.6.6.8.9.9,1.8,1.4,3.2,1.6-.1,1.6,1,2.7,1.7,3.3s1.6,1.5,2.9,1.3c.7,1.6,1.7,2.6,3.2,3.4,0,.7.6,1.3,1.1,1.7.2.3.5.6.8.8.6.6,1.5,1.5,2.8,1.4.2,0,.4,0,.6-.1.1.5.3,1,.7,1.3.3.7.8,1.2,1.5,1.3h0c.1.2.2.4.3.5.2.2.4.4.6.6.1.5.3.9.7,1.2.1.6.7,1.1,1.1,1.5.3.3,1,1,1.8,1.2.2,0,.4.1.6,0,1.1,1.8,2.1,2.8,3.9,3.9.1.8.9,1.6,1.6,2.2.8.7,1.5,1.4,2.4,1.5,1,1.5,2,2.4,3.9,3.2,0,1.1.9,2,1.6,2.6.7.6,1.6,1.5,2.8,1.3.8,1.6,1.6,2.5,2.8,3.3.1.5.4.9.8,1.1.2.4.5.6.7.8l.9.8c.6.6,1.5,1.5,2.9,1.3h.1c.3,1,.8,1.6,1.6,2.1.1.5.4.9.8,1.2.2.3.5.7.9,1,.4.4,1,.6,1.4.7.3.1.6.1,1,.1,0,.3,0,.6.1.8.2.6.6,1,1,1.3.1.5.5.9.9,1.2.2.3.5.7,1,1,.8.5,1.6.6,2.4.6,0,1.7.9,2.7,1.9,3.5.4.5,1,1,1.6,1.2.2.1.4.1.6.1,1,1.6,1.9,2.6,3.6,3.5.1.9.9,1.6,1.6,2.3.6.6,1.5,1.4,2.5,1.3.8,1.6,1.7,2.5,3,3.3.1.6.7,1.1,1.1,1.4.2.2.4.4.7.5,1,1.2,2.1,2,3.8,2-.1,1.4.6,2.4,1.6,3.2.3.5.7.8,1.1,1.1.1.1.4.3.8.4,1,1.2,1.9,2,3.5,2.5,0,.7.4,1.3.9,1.6.1.2.4.4.6.6.1.3.4.6.7.8.8.7,1.7,1.1,2.7,1.2v.4c.1.6.4,1,.9,1.4.1.5.5.8.8,1.1.2.4.5.7,1,1,.7.4,1.3.4,1.8.3.5,1.7,1.2,2.6,2.4,3.5.4.9,1.4,1.1,1.7,1.2h.6c.6,1.4,1.3,2.2,2.5,2.9.1.6.6,1.1,1,1.4.2.4.6.6.8.9.6.6,1.5,1.5,2.8,1.3h.1c.5,1.4,1.2,2.3,2.3,3.2.1.4.5.9,1.1,1.3.2.1.4.2.6.3.9,1.2,1.8,1.9,3.2,2.2,0,.7.3,1.2.8,1.6.2.5.6.9,1,1.2.3.5,1,1,1.9,1h.4c.7,1.5,1.5,2.3,2.8,3.1.1.9.8,1.5,1.4,2,.5.5,1.3,1.3,2.4,1.1.6,1.3,1.5,2.1,2.8,2.7,0,1.1.8,1.8,1.3,2.3s1.3,1.2,2,1.4c.9,1.1,1.8,1.8,3.2,1.8,0,.2,0,.5.1.7.2.9.8,1.6,1.4,2,.1.4.5.8,1.1,1.1.2.1.5.2.7.3.8,1.1,1.8,1.7,3.1,1.8,0,.2,0,.5.1.7.2.9.7,1.5,1.3,1.9.2.5.6.9.8,1,.3.3.6.5.8.6.5.6,1.3,1.4,2.5,1.3h.2c.4,1.2,1,2,2.2,2.6.1.9.8,1.5,1.3,2,.7.6,1.3,1.2,1.8,1.6.5.6,1.3,1.3,2.4,1.2.4,1,1,1.8,2,2.3.1.5.5.9.9,1.2.1.2.3.4.6.5.2.3.5.6.8.8.4.3,1,.5,1.6.5.3,1.1.9,1.8,2,2.3.1.9.8,1.5,1.2,1.9.4.4,1.1,1,2,1,.6,1,1.4,1.6,2.4,1.8v.3c.1,1,.8,1.6,1.5,2.1.3.7.9,1.2,1.3,1.6s1,1,1.8,1c.6.9,1.4,1.4,2.4,1.5,0,.2,0,.4.1.5.2.8.8,1.3,1.4,1.7.2.7.7,1.2,1.2,1.6.4.4,1,.9,1.6,1,.5.6,1.1,1.1,1.9,1.2h.3c.2.9.7,1.5,1.6,2,.1.8.6,1.4,1.1,1.7.2.2.4.4.6.7.3.3.6.5.8.8.3.3.9.9,1.6.9.4.5.8.9,1.5,1.1.2,0,.3.1.5.1,0,.2.1.4.2.6.2.6.7,1,1.1,1.3.1.7.6,1.2,1,1.5.2.3.5.5.7.7s.3.2.5.3c.4.5.9,1,1.7,1,.2.4.6.7,1,1,.2.1.4.2.7.3,0,.1,0,.2.1.3.2.6.6,1,1,1.3.1.7.7,1.2,1,1.4.4.4.8.8,1.2,1.1l1.2,1.1c.3.3.7.6,1.1.9.3.4.8.9,1.5.9.3.4.7.7,1.2.8h.2c.1.2.1.3.2.5.2.3.5.6.8.8.1.5.4.9.8,1.2.2.5.6.8.8,1l.9.9.9.9c.3.3.6.6,1,.8.2.3.6.6,1.1.7.2.3.5.5,1,.7.1.2.3.4.5.5.1.1.2.1.3.2,0,.1.1.1.1.2.2.2.3.4.5.5.1.3.3.6.6.7.1.3.3.5.6.7.2.3.4.5.5.7l1.3,1.2-1.2,1.1L127.7,202.2c-24.7-22.9-63.5-21.5-86.4,3.2s-21.5,63.5,3.2,86.4l239.1,222.1c-.3,1-.6,2.1-.8,3.2-.1-.1-.2-.1-.4-.1ZM286.5,530.8l-.7-10.1c-.1-2.1.2-4.2.9-6.2l3.4-9.4c.4-1.1,1-2.2,1.7-3.2l35.9-53.1c.6-.9,1.6-1.3,2.6-1.1l57,25.5c.3.2.7.4,1,.6.1.1.2.1.3.2.3.3.7.5,1,.8s.5.5.7.9c.8,1.3.3,2.4-.5,3.4-3.6,3.2-7.2,6.6-11,10.2-4.2-2.3-8.3-4.5-12.6-6.7-1.7-.9-3.6-1.3-5.6-1-1.9.3-3.5,1.3-4.7,2.8-2.6,3.2-5,6.5-7.6,9.7-1.1,1.4-2.1,2.7-3.2,4.1h0c.8,1.4,1.3,2.8,1.8,4.2,1.2,3.4,1.8,7.1,1.7,10.7,0,2.1-.3,4.1-.7,6.2-5.7,5.8-11.6,11.9-17.5,18.3-1.6.5-3.2,1-4.9,1.3-2,.4-4.2.7-6.3.3-.1,0-.3,0-.4,0-1.1,1.8-2.1,3.6-3.2,5.5-.6,1-1.2,2-1.8,3-.6,1-1.1,2-1.2,3.2-.1,1.1.1,2.3.6,3.4.2.4.4.8.7,1.2-1.9,2.1-3.7,4.2-5.6,6.3-2.5-2.9-5-5.8-7.5-8.7-2.1-2.4-4.2-4.8-6.3-7.2l-5.4-7.1c-1.4-2.4-2.4-5.2-2.6-8.1ZM293.2,582.9c-.6-1-.8-2.2-.7-3.3l2.3-24.8c.4-2.3,1.2-5.2,3.7-3.7.1,0,.2.3.3.4,3,3.4,6,6.9,8.9,10.3l.4.5c-.2.2-.4.4-.6.6-1.7,1.9-2.6,4.3-2.7,6.8-1.6,2.8-6,10.3-9.3,17.4l-2.3-4.2ZM313.1,616.1c-1.1-.2-2.1-.8-2.9-1.6l-14.3-16.4c-.7-.8-1.2-1.9-1.2-3,1.5-4.2,4.2-9.6,6.7-14.4.4-.8.9-1.5,1.4-2.2.4-.5.9-1.1,1.4-1.4,1.1-.5,1.7.2,2.2.9,1.1,2.8,2.8,5.8,5.7,8.5.2.2.5.5.8.7,3,2.6,6.3,4.3,9.7,5.2.3,0,.7.2,1,.3.6.2,1.5.5,1.9,1.1.3.6.3,1.1.1,1.7l-2.7,5.4c-.3.6-.6,1.2-.8,1.9-.3,1.5,0,3,.9,4.3,1,1.4,2.6,2.4,4.3,2.6.6,0,1.2,0,1.9,0s1.1,0,1.6,0c.9,0,2.3.2,2.1,1.7,0,.3-.2.5-.3.7l-4.2,4.5h-.1c-1.2,1.2-2.1,1.4-3.7,1.4l-11.5-2.1ZM339.6,635.7l4.3-9.6c.8-1.7,1.5-3.5,2.3-5.2,1.1-2.4,1.7-5,1.6-7.7-.1-3.7-1.4-7.3-3.6-10.3-.4-.6-.9-1.1-1.4-1.7l-4.4-5.1c-1.6-1.8-3.1-3.6-4.7-5.4.8-.6,1.5-1.3,2.1-2,.6-.8,1.3-1.7,2.1-2.7,4.9,6.3,9.8,12.6,14.6,18.8,1.7,2.1,2.6,4.6,2.2,7.3-.3,2.2-1.6,4.3-2.6,6.3s-2.1,4.5-3.2,6.7c-1,2.2-.3,4,1.2,5.6,1.9,2.1,3.8,4.2,5.8,6.3,0,0,.1,0,.1.2h.1c.1.2.2.4.3.5.1,0,.2.3.3.4.1,0,.2.4.1.5-.1.2-.4,0-.5,0s-.3-.2-.4-.3h-.1c-1.9-1.6-4.8-1.4-6.5.4-1.6,1.7-1.7,4.2-.4,6l-9-8.4c0-.2-.2-.3-.3-.5ZM508.3,789.5l-53.8-45.8c-.2-.2-.2-.4-.3-.5,1-.3,2-.6,3-.9,3.9-1.2,7.8-2.4,11.6-3.5,5.2-1.6,10.5-3.2,15.7-4.8,5.6-1.7,11.2-3.4,16.8-5.1,5-1.5,9.9-3,14.9-4.5,3.3-1,6.7-2,10-3,.7-.2,1.5-.5,2.2-.7.3,0,.6-.2.8-.2,1,0,1.9,0,2.8.5,4.5,2,8.9,4,13.4,5.9,1.7.8,3.5,1.5,5.2,2.3,1.1.5,2,1.3,2.3,2.5,0,.7,0,1.4,0,2.1s0,1.3,0,2c.5,7.7,2.7,15.4,7.3,21.7,1,1.4,2.2,2.8,3.5,4-13.2,8.3-36.6,22.4-51.6,28.3l-1.1.3c-1,.3-2.1.1-2.9-.6ZM682.2,886.8l-14.7,6.8c-2.3,1.1-4.8,1.7-7.4,1.8l-8.9.3c-4.8.2-9.5-1.5-13.1-4.6l-115.1-99.7c-.4-.4-.8-.8-1-1.3-.3-1.1.6-2.1,1.5-2.7.3-.2.5-.4.8-.5,12.8-6.3,27.6-15.2,38-21.7.3-.2.6-.3.9-.5.6-.3,1.2-.6,1.9-.7.6,0,1.2,0,1.7.5.4.4.4.9.5,1.4.2,1.9.4,3.8.8,5.7.8,4.3,2,8.5,3.4,12.6,2,5.8,4.6,11.4,7.5,16.8,3.8,7.1,8.2,13.8,12.9,20.3,6.1,8.3,13,16,20,23.6,6.1,6.7,12.2,13.3,18.5,19.8,4.3,4.4,8.6,8.8,13,13.1,1.5,1.5,3.1,3,4.7,4.4,2,1.8,4,3.7,6.4,4.9,4,2.1,8.4,2.4,12.8,1.8,4.6-.7,9.2-1.6,13.6-3.1,1.2-.4,2.4-.9,3.6-1.4h0c-.7,1.2-1.4,2-2.3,2.4ZM684.3,883.7c-3.4,1.8-7.3,2.7-10.9,3.5-4.4.9-9,2-13.5,1.3-4-.6-7.5-2.6-10.5-5.3-1.4-1.3-2.8-2.6-4.2-3.9-4-3.8-7.8-7.6-11.6-11.5-5.7-5.9-11.3-11.8-16.9-17.8-7.1-7.7-14.2-15.3-20.7-23.5-5.3-6.7-10.2-13.7-14.4-21.1-3.3-5.6-6.2-11.5-8.6-17.6-1.7-4.4-3.1-8.9-4.2-13.5-.6-2.9-1.1-5.9-1.3-8.9v-1c1.5,3.2,4.5,9.1,9.2,16.9,3.6,6.7,7.4,13.1,11.5,19.5,7.2,11.1,15.3,21.7,23.9,31.7,7,8.2,14.4,16,22.2,23.4,2.9,2.8,5.9,5.6,8.9,8.3.5.4,1,.8,1.5,1.2,1.2,3.4,2.9,6.7,5.2,9.5,1.1,1.4,2.4,2.5,4.1,3.2,1.9.7,3.9,1.1,5.9,1.5,5.6,1.1,11.5,1.5,17.2.5,1.2-.2,2.4-.6,3.7-.6s1.2,0,1.8,0l1.1,1.9c.5.7.7,1.4.6,2.2ZM681.1,879.3s0,0,0,0h0ZM681.6,879.3h0s-.1,0,0,0c-.1,0,0,0,0,0ZM681.6,879.3h0ZM681.6,879.3q0,0,0,0,0,0,0,0,0,0,0,0h0ZM685.2,877.4c0,0-.2,0-.3.2h0c0-.1.2-.2.3-.2h0ZM714.4,852.8l-28.4,23.9c-1.2.8-2.4,1.5-3.8,2-1.5.5-3,.8-4.6,1.1-1.9.3-3.8.5-5.7.6-2.3,0-4.7,0-7-.3,3.9-3.5,7.7-7.1,11.6-10.6,5.3-4.9,10.6-9.8,15.9-14.6,2.3-2.1,4.3-4.3,5.7-7.1,2.5-5.3,2.5-11.5,0-16.7-1.2-2.5-2.4-5-3.7-7.5-3-6-5.9-12.1-8.9-18.1-3.7-7.5-7.4-15.1-11.1-22.6-3.5-7.1-6.9-14.1-10.4-21.2-2.2-4.5-4.4-8.9-6.6-13.4-.4-.8-.8-1.6-1.2-2.4-1.6-3.1-4.1-5.7-7-7.6-1.4-.9-2.9-1.5-4.5-2.1-5.7-2-11.4-4.1-17.1-6.1,0,0-.3,0-.4-.3,0-.2,0-.3.3-.4.3,0,.6-.2,1-.2h.2c5.8-.5,11.6-1.7,17.1-3.8,3.4-1.3,6.3-3.1,8.6-5.9,1-1.2,1.9-2.4,2.8-3.6,3.1-3.9,6.2-7.8,9.3-11.7,1.2-1.6,2.4-3.1,3-5.1,0-.3,0-.5.2-.8.4-1.3.8-2.5,1.4-3.7.3-.7.7-1.5,1.1-2.1.5-.8,1.1-1.5,2.1-1.6,1.9,0,3,1.5,3.9,2.9h0c2.9,5.9,5.6,12,7.8,17.5l32.8,98.2c2.3,8.8,3.5,16,4.2,21.3,1.1,8.5-2.2,16.7-8.6,22Z"/>
    <path class="st2" d="M338.9,528.7c9.4-10.1,8.8-26-1.3-35.4-10.1-9.4-26-8.8-35.4,1.3s-8.8,26,1.3,35.4c10.2,9.4,26,8.8,35.4-1.3ZM303.2,495.5c8.9-9.6,23.9-10.1,33.5-1.2s10.1,23.9,1.2,33.5-23.9,10.1-33.5,1.2c-9.5-8.9-10.1-23.9-1.2-33.5Z"/>
    <path class="st2" d="M336.5,526.5c8.2-8.8,7.6-22.6-1.1-30.7-8.8-8.2-22.6-7.6-30.7,1.1-8.2,8.8-7.6,22.6,1.1,30.7,8.8,8.2,22.6,7.6,30.7-1.1ZM305,497.2c8-8.6,21.5-9.1,30.1-1.1s9.1,21.5,1.1,30.1-21.5,9.1-30.1,1.1-9.1-21.5-1.1-30.1Z"/>
    <path class="st2" d="M459.9,508.4c3.9-4.2,3.7-10.8-.5-14.8s-10.8-3.7-14.8.5c-3.9,4.2-3.7,10.8.5,14.8,4.3,3.9,10.9,3.7,14.8-.5ZM444.9,494.5c3.8-4,10.1-4.3,14.1-.5s4.3,10.1.5,14.1-10.1,4.3-14.1.5c-4-3.8-4.2-10.1-.5-14.1Z"/>
    <path class="st2" d="M371.7,619.1c-.4,2,.2,4,1.7,5.5s.6.6.9.9c3.9,3.9,7.7,7.7,11.6,11.6l19.5,19.5c7.1,7.1,14.3,14.3,21.4,21.4,5.6,5.6,11.3,11.3,16.9,16.9,1.6,1.6,3.3,3.3,4.9,4.9,1,1,2,2.2,3.3,2.8,2.4,1.1,4.6.4,7-.2,2.9-.8,5.7-1.5,8.6-2.3,9.1-2.5,18.3-4.9,27.4-7.4,8.6-2.3,17.1-4.6,25.7-6.9,2.2-.6,4.3-1.2,6.5-1.7.9-.2,1.7-.5,2.4-1,1.8-1.1,2.7-3,2.8-5.1.2-7.1.4-14.2.7-21.3.3-8.6.5-17.3.8-25.9,0-.8,0-1.6,0-2.4,0-2.2-.9-4.2-2.8-5.5-2.5-1.5-4.9-3.1-7.4-4.6-6.2-3.8-12.3-7.7-18.5-11.5-8.2-5.1-16.4-10.2-24.6-15.3-8.6-5.3-17.1-10.7-25.7-16-7.2-4.5-14.4-9-21.6-13.5-4.1-2.6-8.3-5.2-12.4-7.7-1.5-.9-2.9-1.8-4.8-1.8s-3.3.5-4.5,1.6c-.7.6-1.4,1.3-2,1.9-1.7,1.6-3.3,3.3-4.8,5-9.6,10.3-18.1,21.9-24.5,34.5-3.8,7.5-7,15.4-8.6,23.6ZM374.4,621.9h0ZM449.4,699.1c-4.3-4.3-8.6-8.7-13-13-6.6-6.6-13.3-13.3-19.9-19.9-7-7-13.9-13.9-20.9-20.9s-10.6-10.6-15.9-15.9c-1.4-1.4-2.8-2.8-4.2-4.2s-.6-.6-.9-.9c-.3-.3-.5-.5-.7-.9s-.2-.3-.3-.5c-.1-.2-.1-.4.1-.6.2-.2.4-.4.7-.4.2,0,.3,0,.5,0h4.5c.3,0,.6.2.8.3.3,0,.5.3.6.6.1,0,.1.2.1.3.4,1.2,1.1,2.3,2,3.2l.8.8,10,10c5.7,5.7,11.4,11.4,17.1,17.1l18.8,18.8c5,5,10,10,14.9,14.9,1.4,1.4,2.9,2.9,4.3,4.3.8.8,1.5,1.6,2.4,2.2.6.4,1.2.8,1.7,1.4.3.3.5.7.6,1.2,0,.3,0,.5,0,.8l-.2,2.7h0v.4c0,.2,0,.4,0,.6,0,.2-.2.3-.3.5,0,0-.2,0-.3,0h0c-.4-.2-.8-.5-1.1-.8-.8-.7-1.5-1.4-2.1-2.1ZM419.6,560.8h0ZM419.1,560.6h0ZM418.1,561.1h0q-.1,0,0,0t0,0h0ZM424,562.1c2.3,1.2,4.4,2.7,6.6,4.1,5.3,3.3,10.5,6.6,15.8,9.9,7.1,4.4,14.1,8.8,21.2,13.2,7.4,4.6,14.9,9.3,22.3,13.9,6.4,4,12.8,8,19.1,11.9,3.8,2.4,7.6,4.8,11.5,7.1.5.3,1,.6,1.5.9,2.4,1.5,3.7,4.1,3.6,6.9,0,.6,0,1.3,0,1.9,0,3.2-.2,6.3-.3,9.5-.3,8.2-.5,16.4-.8,24.6,0,1.9,0,3.7-.2,5.6,0,3.1-2,5.9-4.9,6.9-.5.2-1,.3-1.4.4-5.4,1.4-10.8,2.9-16.2,4.3-8.4,2.2-16.7,4.5-25.1,6.7-5.8,1.6-11.6,3.1-17.5,4.7-.4,0-.8.2-1.2.3-2.5.6-5.1,0-7-2l-1.8-1.8c-3.8-3.8-7.6-7.6-11.4-11.4-5.8-5.8-11.6-11.6-17.5-17.5-6.1-6.1-12.3-12.3-18.4-18.4-4.6-4.6-9.3-9.3-13.9-13.9-1.2-1.2-2.4-2.4-3.6-3.6l-.7-.7c-1.6-1.6-2.4-3.7-2.3-6,.1-1.9.8-3.8,1.4-5.7.5-1.8,1.1-3.5,1.8-5.3,1.3-3.5,2.8-6.9,4.5-10.2,3.1-6.2,6.8-12,10.9-17.6,3.4-4.6,7-9,10.9-13.2,1.4-1.6,2.9-3.1,4.4-4.6,2.5-1.7,5.9-2.5,8.8-.9ZM452.5,695.3h0ZM380.4,621.4h0ZM380.5,621.3h0ZM379.9,622h0ZM380.4,621.2s0,0,0,0c0,0,0,0,0,0ZM379.9,621.6h0ZM453.3,702.2h0ZM527,683.4c-.3,0-.7.2-1,.3-6.2,1.7-12.4,3.3-18.6,5-9.5,2.6-19,5.1-28.5,7.7-6.9,1.9-13.9,3.7-20.8,5.6-.6.2-1.3.3-1.9.5-.9.2-1.8.2-2.6,0l.5-6.7c1.4.3,3,.3,4.4,0,.4,0,.9-.2,1.3-.4,2.3-.6,4.6-1.2,7-1.9,7.9-2.1,15.9-4.3,23.8-6.4,7.5-2,15-4,22.6-6.1,1.9-.5,3.7-1,5.6-1.5,1.9-.5,3.5-1.5,4.7-2.9l5.9,5.5c-.7.6-1.4,1.1-2.4,1.4ZM532.5,628.6c0,.9,0,1.8,0,2.8,0,3.8-.2,7.5-.4,11.3-.3,9.4-.6,18.8-.9,28.3,0,2.4,0,4.8-.2,7.2,0,1.4-.5,2.7-1.4,3.7l-6-5.5c1-1.3,1.6-2.8,1.6-4.6.2-5.9.4-11.9.6-17.8.2-7.4.5-14.9.7-22.3v-1.5c0-1.4-.3-2.7-.9-3.9l6.1-.8c.7.8,1,1.9.9,3.1ZM425.7,558.3c6.1,3.8,12.1,7.5,18.2,11.3,8.1,5,16.1,10.1,24.2,15.1,8.5,5.3,16.9,10.6,25.4,15.8,7.2,4.5,14.4,9,21.7,13.5,4.3,2.7,8.7,5.4,13,8.1.6.4,1.2.7,1.8,1.1.7.5,1.3,1.1,1.7,1.7l-6.1.8c-.6-1.1-1.6-2.1-2.7-2.9h0c-2.2-1.3-4.3-2.7-6.5-4-5.4-3.4-10.8-6.8-16.3-10.1-7.2-4.5-14.5-9-21.7-13.5-7.5-4.7-15-9.3-22.5-14-6.3-3.9-12.6-7.9-18.9-11.8-3.6-2.2-7.1-4.5-10.7-6.7-1.5-.9-3-1.7-4.8-1.9h-1.6c-.2,0-.4,0-.6,0s-.4-.2-.5-.4c0,0-.1,0-.1-.2l-2.6-6.2h0c0-.3,0-.4.1-.5.1,0,.3-.2.4,0h.1c.6,0,1.2.3,1.8.7,2.5,1.2,4.8,2.8,7.2,4.3ZM415.8,553.3h0ZM415.4,553.3h0ZM415.5,553.2h0ZM414.6,553.3h0ZM406.3,560.8c1.6-1.6,3.1-3.3,4.8-4.8.7-.7,1.4-1.5,2.3-2.1.3-.2.7-.4,1.1-.5h.3c.2,0,.4,0,.6.2.2,0,.3.3.4.4l2.3,5.5c0,0,.1.2.1.3.1.2.1.4.1.6s-.1.4-.2.5c-.1.2-.2.3-.4.4-1.3.5-2.6,1.4-3.6,2.5-1.6,1.6-3.1,3.1-4.6,4.8-8.7,9.4-16.3,19.9-21.9,31.4-1.7,3.4-3.2,6.9-4.4,10.5-.6,1.8-1.2,3.6-1.7,5.4-.5,1.6-1,3.3-.9,5h0v.2c-.1.2-.2.3-.3.4-.2,0-.3,0-.5.2h-5.5c-.2,0-.5-.2-.7-.3-.2,0-.3-.3-.4-.5,0,0-.1-.2-.1-.3,0-.8.1-1.7.3-2.6,3.7-15.6,11.5-30,21.1-42.8,3.5-5,7.6-9.8,11.8-14.4Z"/>
    <path class="st2" d="M642.5,652.4c6.6,6.1,16.9,5.7,23-.8,6.1-6.6,5.7-16.9-.8-23-6.6-6.1-16.9-5.7-23,.8-6.1,6.6-5.8,16.9.8,23ZM664.2,629.1c6.3,5.9,6.7,15.8.8,22.1s-15.8,6.7-22.1.8c-4.1-3.8-5.7-9.3-4.7-14.4,0-.2,0-.4.2-.6,0,0,0-.2.2-.3,0,0,.2,0,.3,0v.2c0,.3,0,.7,0,1v.4c.2,2.6,1.3,5.2,3.4,7.1,4.3,4,11.1,3.8,15.1-.6,4-4.3,3.8-11.1-.6-15.1-2.9-2.7-7-3.5-10.5-2.3h0c0,0-.2,0-.3,0h-.3c0,0,0-.3,0-.3l.3-.3c5.7-3.2,13-2.5,18,2.2ZM639.1,636.9s0,0,0,0c0,0,0,0,0,0h0ZM639,636.6q0-.1,0,0t0,0ZM642.2,630.5c3.8-4.1,10.3-4.4,14.4-.5,4.1,3.8,4.4,10.3.5,14.4-3.8,4.1-10.3,4.4-14.4.5-4.1-3.8-4.3-10.3-.5-14.4ZM646,627.4h0s.1,0,0,0q.1,0,0,0ZM643.3,628.8h0Z"/>
    <path class="st2" d="M541.3,746.9c-3.5-12.2-17.2-19-30.6-15.2-13.4,3.8-21.6,16.8-18.1,29,1.1,3.8,3.1,7.1,6,9.8,1.6,1.5,3.5,2.8,5.6,3.8,5.8,2.9,12.5,3.4,19,1.6,13.5-3.8,21.6-16.8,18.1-29ZM523,775.1c-4,1.1-8.1,1.3-12,.6-7.2-1.7-13.2-6.7-15.2-13.8-3.1-10.8,4.2-22.4,16.2-25.8,8.2-2.3,16.5-.2,22,4.8,2.5,2.3,4.4,5.3,5.3,8.7,2,7-.3,14.3-5.5,19.5-3,2.7-6.6,4.8-10.8,6ZM504.6,773.6c-5.6-2.8-9.5-7.4-11.1-13.1-3.3-11.7,4.5-24.2,17.5-27.9,8.9-2.5,17.9-.2,23.8,5.2,2.7,2.5,4.7,5.7,5.8,9.4,1.7,6,.5,12.2-2.9,17.3,2.6-4.6,3.4-9.9,1.9-15-3.1-11-15.6-17.2-27.7-13.7-12.2,3.4-19.5,15.2-16.4,26.2,1,3.5,2.9,6.5,5.4,8.8,1.3,1.2,2.8,2.2,4.3,3.1-.2-.1-.4-.2-.6-.3Z"/>
    <path class="st2" d="M409.4,541.4c3.6,3.4,9.4,3.2,12.8-.5,3.4-3.6,3.2-9.4-.5-12.8-3.6-3.4-9.4-3.2-12.8.5-3.4,3.7-3.2,9.5.5,12.8ZM421.4,528.5c3.5,3.2,3.7,8.7.4,12.1-3.2,3.5-8.7,3.7-12.1.4-3.5-3.2-3.7-8.7-.4-12.1,3.2-3.4,8.6-3.6,12.1-.4Z"/>
    <path class="st2" d="M411.7,538.9c2.2,2.1,5.8,2,7.9-.3,2.1-2.2,2-5.8-.3-7.9-2.2-2.1-5.8-2-7.9.3-2,2.3-1.9,5.8.3,7.9ZM419.1,531c2.1,2,2.2,5.3.3,7.4-2,2.1-5.3,2.2-7.4.3-2.1-2-2.2-5.3-.3-7.4,2-2.1,5.3-2.3,7.4-.3Z"/>
    <path class="st2" d="M571.4,662.3c-2.2-2.1-5.8-2-7.9.3s-2,5.8.3,7.9c2.2,2.1,5.8,2,7.9-.3,2.1-2.3,1.9-5.8-.3-7.9ZM564,670.2c-2.1-2-2.2-5.3-.3-7.4,2-2.1,5.3-2.2,7.4-.3,2.1,2,2.2,5.3.3,7.4-1.9,2.1-5.2,2.3-7.4.3Z"/>
    <path class="st2" d="M571.4,746.4c3.6,3.4,9.4,3.2,12.8-.5,3.4-3.6,3.2-9.4-.5-12.8-3.6-3.4-9.4-3.2-12.8.5-3.4,3.7-3.1,9.4.5,12.8ZM583.4,733.5c3.5,3.2,3.7,8.7.4,12.1-3.2,3.5-8.7,3.7-12.1.4s-3.7-8.7-.4-12.1c3.2-3.4,8.6-3.6,12.1-.4Z"/>
    <path class="st2" d="M573.8,743.8c2.2,2.1,5.8,2,7.9-.3,2.1-2.2,2-5.8-.3-7.9-2.2-2.1-5.8-2-7.9.3-2.1,2.3-2,5.9.3,7.9ZM581.1,735.9c2.1,2,2.2,5.3.3,7.4-2,2.1-5.3,2.2-7.4.3-2.1-2-2.2-5.3-.3-7.4,2-2.1,5.3-2.2,7.4-.3Z"/>
    <path class="st2" d="M435.5,720.2c1.1-1.2,1-3.1-.2-4.2-1.2-1.1-3.1-1-4.2.2s-1,3.1.2,4.2c1.2,1.1,3.1,1,4.2-.2ZM431.4,716.4c1-1.1,2.6-1.1,3.7,0s1.1,2.6.1,3.7c-1,1.1-2.6,1.1-3.7,0-1-1-1.1-2.6-.1-3.7Z"/>
    <path class="st2" d="M350.8,644c1.2,1.1,3.1,1,4.2-.2s1-3.1-.2-4.2c-1.2-1.1-3.1-1-4.2.2s-1,3.1.2,4.2ZM354.6,639.9c1.1,1,1.1,2.6.1,3.7-1,1.1-2.6,1.1-3.7,0s-1.1-2.6-.1-3.7c1-1,2.6-1,3.7,0Z"/>
  </g>
  <g>
    <path class="st1" d="M182.9,758.3c-1.6-1.5-2.4-3-2.6-3.4-1.7-2.8-7.5-5.8-25.2-6.9-17.7-.8-30.9-.7-34,.3l-1.6.6s-3.2,1.3-6.2,3.8c-15.8,13.2-17.9,28.7-17.9,28.7-.4,2.9.1,2.1-.5,9-.8,10.4-1.8,11.1-2.2,17.8-.3,5.3.5,11,2.1,22.5.9,6.1,1.4,8,2.7,8.4,2.2.7,4.7-3.4,10.8-10.8,14.3-17.3,18.9-17.4,20.5-17.3,2.1.2,5.7,1.4,8.7,3.3,1.3.8,1.9,1.2,2.6,2.1,1.9,2.6.1,4.8,1.4,8.1,1,2.5,3.5,5.1,6.5,5.2.3,0,2.7,0,4.4-1.7,2.3-2.4.6-5.5,2.4-6.8,1.2-.9,3.1,0,6.7,1.3,3.2,1.3,4.8,1.9,6.1,3.2,3.6,3.5,2.3,7.9,4.8,8.7,2.4.8,4.7-3,6.9-1.9,1.2.6.9,1.9,2.3,3.2,1.2,1.1,2.8,1.4,6.2,1.3,2.7,0,6.4-.4,11-1.6,1.2-1.4,2.8-3,5-4.6,2.9-2.1,5.6-3.3,7.7-4,7.9,2.1,14.1.7,15.2-2.3.6-1.5,0-3.7-1.2-5.1-2.3-2.8-5.8-1.2-7.4-3.3-2.1-2.7,2.8-6.7,2.4-13.6-.4-6.3-4.8-7.2-4.4-12.6.1-2.3,1-3.7,7.4-11.9,8-10.3,9.9-12.3,9.1-13.9-1.4-2.9-9,1.4-16-3.1-4.6-3-6.9-8.4-9-7.6-.2,0-.4.2-1.5,1.8-1.6,2.2-2.4,3.3-3,4.4-2.7,4.6-17.3,26.8-17.3,26.9,0,0,2.9-4.4,13.9-21.6-3.7-.9-6.8-2-9.1-2.8-4.5-1.4-6.2-2.4-7.7-3.8Z"/>
    <path class="st1" d="M97.3,839.1c2.1,0,4.9.5,6.9,2.5,2.3,2.3,2,5.4,2.6,8.8.9,5.8,3.6,9.7,6.4,13.8,7.8,11.3,25.5,16.8,35.1,18.1,2.5.4,5.8.6,8.2,3.2,3.9,4.3,1.6,10.8,4.8,12.3,2,.9,5-.7,6.2-1.6,1.9-1.4,1.7-2.5,3.6-3.7,2.2-1.2,3.1-.2,5-1.5,1.7-1.2,1.7-2.5,3.3-2.9,1-.3,2,0,2.6.4,3.5,1.4,7,1.7,10.7,2.1,2,.2,1.1,0,6.3,0,4.2,0,5.5.4,7.5-.2,2.2-.6,3.7-1.7,4.8-2.6,10.8-8.5,21.6-22.8,26-27,.4-.4,1.7-1.5,2.6-3.5.8-1.7,1-3.1,1.1-3.8.3-3,1-10.1,1.7-19.6-2.7-12.7-5.4-25.4-8.1-38.1l-6.3-14.8-4.8-2.1c-.1,1.3-.1,3.4-.3,5.9-.2,4.7-.3,5.5-.1,6.6.8,3.5,3.5,3.8,5.7,6.9,2.5,3.5,1.6,6.5,1.9,25.9,0,1.2,0,2.2.4,3.4,1.4,5.5,6.8,8.8,11,10.8"/>
    <polyline class="st1" points="180.8 835.9 180.7 861.2 156.8 885.8"/>
    <line class="st1" x1="157.2" y1="881.4" x2="176.1" y2="862.3"/>
    <path class="st1" d="M133.7,869.6c2.8-3.9,5.5-7.7,8.3-11.6,6.4,2.2,12.8,4.5,19.2,6.7-.6,1.5-2.8,6.4-8,8.8-6.2,3-13.9,1.4-19.5-3.9Z"/>
    <polyline class="st1" points="119.6 823.2 127 841.3 132.1 846.8"/>
    <polyline class="st1" points="116.5 826.1 123.9 844.3 129 849.8"/>
    <polyline class="st1" points="113.5 828.7 120.9 846.9 126 852.4"/>
    <polyline class="st1" points="110.5 831.4 117.9 849.6 123 855.1"/>
    <line class="st1" x1="141.3" y1="848.2" x2="141.4" y2="839.2"/>
    <line class="st1" x1="145.8" y1="850" x2="145.9" y2="837.6"/>
    <line class="st1" x1="150.8" y1="851.9" x2="150.9" y2="836.3"/>
    <line class="st1" x1="154.8" y1="853.4" x2="154.8" y2="833.3"/>
    <line class="st1" x1="158.7" y1="854.7" x2="158.7" y2="833.3"/>
    <line class="st1" x1="163.4" y1="855.6" x2="163.2" y2="832.1"/>
    <polygon class="st1" points="166.3 856 166.6 839.5 169.8 839.6 169.5 856.1 166.3 856"/>
    <polygon class="st1" points="171.5 857.7 171.7 839.4 173.9 839.6 173.6 857.8 171.5 857.7"/>
    <polygon class="st1" points="175.3 858.4 175.5 840.2 177.7 840.3 177.4 858.6 175.3 858.4"/>
    <line class="st1" x1="125.6" y1="807.9" x2="131.1" y2="800.6"/>
    <polyline class="st1" points="152.6 801.7 135.6 796.9 132.7 797.5"/>
    <line class="st1" x1="123.9" y1="771.8" x2="130.3" y2="794.1"/>
    <polyline class="st1" points="121.1 798.4 120 787.5 100.3 795.2"/>
    <path class="st1" d="M100.3,811c0,0,3-7.8,3-7.8"/>
    <polyline class="st1" points="102.4 812.7 102.8 811.8 105.9 804.5"/>
    <line class="st1" x1="101.5" y1="808.4" x2="102.8" y2="811.6"/>
    <line class="st1" x1="102.8" y1="805.1" x2="104.1" y2="808.7"/>
    <line class="st1" x1="103.5" y1="803.4" x2="105.1" y2="806.6"/>
    <path class="st1" d="M136.3,769.8c7.5-.2,15-.4,22.5-.6.8,7.1,1.6,14.2,2.5,21.3-3.7.3-10.1.7-17.7,1.1-.8,0-2.4,0-3.6-.9-1.4-1.1-1.5-3-1.6-3.9-.3-3.5-1-9.3-2.1-17Z"/>
    <path class="st1" d="M117.8,869.6c2.5,2.9,7.7,8.7,12.9,13.5.8.7,2,1.8,3.9,2.1,3.8.6,7.1-2.6,8.2-3.8"/>
    <line class="st1" x1="170.9" y1="892.5" x2="164.2" y2="878.5"/>
    <path class="st1" d="M198.8,858.1c2.5-2.8,4.8-4.9,6.5-6.4,2.8-2.4,4.3-3.6,6.8-4.6,2.8-1.1,5.2-1.2,7.4-1.3,2.3,0,5.8,0,9.9,1.1"/>
    <polyline class="st1" points="197.2 890.8 201.7 885.5 208.4 886.3 228.8 865.7"/>
    <path class="st1" d="M199.4,888.4c3.4,0,6.9,0,10.3.2"/>
    <line class="st1" x1="209" y1="887.7" x2="229.7" y2="867.1"/>
    <path class="st1" d="M218.8,820.7c1.3,0,2.5.8,2.4,1.2-.1.3-1.2.4-1.4.4-1.4,0-2.9-.6-2.9-1,0-.4,1.1-.7,1.9-.6Z"/>
    <path class="st1" d="M184.1,760.2c-11.8-1.6-21.6-1.4-28.7-.8-5,.4-8.7,1.1-16,2.5-3.7.7-18.5,3.6-22.5,9.2-.1.2-.9,1.2-1.7,2.6-2.1,3.3-2.7,4.8-3.6,6.1-2.8,4.6-7.4,6.9-9.3,7.9-1.6.8-4,1.8-7.1,2.3"/>
    <line class="st1" x1="119.2" y1="765.6" x2="119.4" y2="755.6"/>
    <line class="st1" x1="153.1" y1="755.5" x2="153.1" y2="750"/>
    <line class="st1" x1="157.4" y1="755.4" x2="157.5" y2="750"/>
    <line class="st1" x1="160.7" y1="756.2" x2="160.7" y2="750.1"/>
    <line class="st1" x1="165.4" y1="756.2" x2="165.3" y2="750.3"/>
    <line class="st1" x1="169.3" y1="756.4" x2="169.3" y2="751.2"/>
    <line class="st1" x1="170.2" y1="774.9" x2="168.8" y2="766"/>
    <line class="st1" x1="189.3" y1="793" x2="193.1" y2="788.3"/>
    <line class="st1" x1="196.6" y1="799.8" x2="200" y2="793.9"/>
    <path class="st1" d="M202,800.5c0-.2,4-7.4,4-7.4"/>
    <line class="st1" x1="205.9" y1="800.2" x2="213.4" y2="789.9"/>
    <line class="st1" x1="177.5" y1="789.7" x2="181.6" y2="794.6"/>
    <path class="st1" d="M187,799.7c1.2,1.1,2.6,2.3,4.5,3.2,7.4,3.8,15.1,1.5,17.4.7"/>
    <path class="st1" d="M143.3,827.6c15.7-24.5,29.6-43.5,39.9-56.9,7.5-9.7,12-15.1,21.1-25.9,16.6-19.7,10.6-11,25.9-27.3.7-.8,2.6-2.7,5.5-4.6,2.9-1.9,5.5-2.9,7.1-3.5"/>
    <path class="st1" d="M154.7,820.4c12.5-19.6,27.6-40.2,45.7-61,5.7-6.5,11.4-12.7,17-18.6,11.6-13.8,23.2-27.6,34.8-41.4-6.2-3.4-8.9-9.9-7.1-14.9,1.1-3,4.1-6.3,7.7-6.6,4.4-.4,8.1,4,10.8,2.2.9-.6,1-1.4,2.2-1.7,1.6-.4,2.5.9,3.9.9,2.2,0,3.8-2.7,4.4-3.7,3.3-5.3,16.3-24.2,21.7-28.6.5-.4,2.2-1.7,2.7-3.9.4-1.7,0-3.3-.2-4,0,0-4.1-13-7.7-27.6-.3-1.1-.3-2-.3-2.7s0-1.1.3-2.1c.9-3.5,4.3-8.8,4.5-13.3,0-.5.2-3.7-1.7-6.5-4-6.2-14.3-6.1-20.1-4.9-2.9.6-2.3,1-6,2-2.3.6-11.3,2.9-22,.3-1.9-.4-.5-.3-12.6-4.7-11.3-4.2-11.2-3.9-12.5-4.8-3.5-2.6-8.9-8.3-12.3-11.2-.3-.3-.7-.6-1.3-1-2.5-1.6-3.6-.9-4.5-1.9-1.6-1.6.8-4.5-.6-9-.3-.9-.6-1.5-1.1-2.3-8-14.5-9.4-17.8-13.5-20.1-1.4-.8-2.3-1-4.5-2.4-3.3-2-5.2-3.2-6.4-5-3.5-5.4,1.3-13.5-1.5-15-.3-.2-.6-.2-1-.2,0,0-5-.2-10-3.7-4.8-3.3-6.5-10-6.3-15.1.1-2,.7-6.3,3.7-10.3,6.8-8.9,22.1-10.6,28.2-4.8,2.5,2.3,3.8,6.3,4.1,7.2,1.7,5.2,1,9.8,3.6,10.9.5.2.8.2,1.5.2,6.9,0,10.3,0,10.8.4,1.4,1.7-1.3,7.4-5.3,15.5-.3.6-1.1,2.3-.7,4.3.2.9.6,1.5.7,1.7,8.3,13.3,10.7,19.5,10.7,19.5,1.4,3.5,3.6,6.7,4.6,10.3.1.3.4,1.5,1.4,2.1.7.4,1.3.4,1.8.5,2,.3,4.5,2.2,4.6,4,.2,2-2.4,2.9-2,5.2.1.6.4,1.1.7,1.6,8.2,11.5,14.7,14.6,14.7,14.6,11.6,5.4,22.6,1.3,24.5.6,1-.4,16.8-6.4,28.7,0,6.8,3.7,10.3,9.5,10.3,9.5,1.2,2,1.9,3.8,2.4,5.1,5.1.3,8.3,1.9,10.4,3.4,7.1,5.2,8.1,15.1,12.2,15,.9,0,1.6-.6,2.1-1,15.1-12.5,349.1-420.7,351-422.9,0-.1,1-1,1.4-2.5.4-1.6,0-2.9,0-3.5-.6-2.2-1-5.1-2-10.7-.9-5.1-.5-7.1-.4-8,.3-1.7.9-3,1.5-4.2,2.6-5.5,5.6-10.2,9.1-16.5,1.5-2.7,2.2-4.2,1.9-6.1-.4-2.8-2.7-4.3-2.1-5.5,0-.2.4-.6,4.5-.8,2.5-.1,3.8-.2,4.3.1,2.1,1,1.3,3.5,3.6,6.2.7.9,1.1,1,5.2,3.3,4.4,2.5,6.6,3.8,6.9,4.4.8,1.9-.8,3.6-8.8,13.6-4.3,5.3-6.7,8.4-9,7.9-1.5-.4-1.9-2.3-4.2-2.8,0,0-2.6-.6-3.7.6-1.7,1.8.8,6.7,2.5,10,2,3.8,3.9,7.6,8,11.7,7.7,7.6,18.8,12.3,24.5,9.9.5-.2,1.8-.7,2.4-2,.8-1.4.6-3.4-1.6-8-4.7-9.7-8.2-14.8-8.2-14.8-.4-.7-1.5-2.2-1-3.5.5-1.2,2.1-1.5,2.7-1.7,11-2.6,20.2-8.7,25.4-4.5,3.3,2.7,3,8.1,2.9,11.1-.5,16.3,4.8,30.3,14.6,58.3,4,11.6,8.4,20.9,11.2,26.4.9,1.8,0,.1,6.1,11.5,7.4,13.9,8.4,16.4,11.6,17.9,3.7,1.8,6.7,1.3,15.8,1.1,5.5-.1,13.3-.2,22.7.2-1.9,1.2-4.6,2.8-8,4.4-3.9,1.9-8,3.9-12.9,4.8-4.7.9-5.7.1-12.5.2-10.6.2-12.4,2.5-19.6,2.4-4.2,0-10.2-.9-17.6-4.7-9.4-4.4-26.2-13.7-41.1-31.8-16.3-19.8-21.9-40.1-24.1-50.4-.5-.2-1.2-.4-1.9-.2-.5.2-.8.5-.9.7-3.3,3.7-339.6,409.5-345.8,413.5-.1,0-1.7,1-1.7,2.1s1.8,1.4,2.5,2.6c1.6,2.6-4.4,6.4-8.7,15.5-1.5,3.2-2.6,6.8-5.1,7.1-1.4.2-3.1-.7-3.9,0s-.4,1.4-.4,1.7c.5,5.5,5.1,124.4,4.2,128.4,0,0-.2,1,.1,1.9.5,1.3,1.8,1.9,2.1,2,2.8,1.4,7,10.1,5.3,18.8-.5,2.6-1.4,7.2-5.2,9.6-1.4.9-4.2,1.1-9.6,1.5-5.3.4-7.1,0-8.4-1.1-.8-.7-.7-1.1-1.8-2.9,0,0-1.3-2.3-4.3-5.5-4.9-5.4-11.3-6.3-16.3-12.7-1.4-1.8-5.3-6.8-3.9-12.1.9-3.3,3.4-5.3,4.8-6.2.4-.4,6.2-6,14.1-4.2,6.2,1.4,9.1,6.3,9.6,7.2-1.5-51.8-2.5-89.2-2.5-91.8s.1-2.5-.8-2.9c-.3,0-.6,0-.8,0-2.4,1-10.9,8.8-16.9,11.6-5.7,2.6-11.1,1.7-12.1,4.9-.4,1.1-.2,2.7-1.4,4-.4.4-.7.5-2.9,1.5-3.4,1.6-3.9,1.9-4.3,2.3-1.3,1.1-2.6,2.8-2.2,3.5.3.6,1.4.2,1.6.6.3.5-1.2,2.1-6.3,5.8-21.2,25.4-36.7,44-37.7,45.3-.2.2-.6.8-.5,1.4.1.9,1.1,1.4,1.5,2,.6.8.6,2.4-1.6,6.1"/>
    <line class="st1" x1="216.8" y1="745.1" x2="252.6" y2="706"/>
    <line class="st1" x1="218.5" y1="747.5" x2="255.5" y2="705.8"/>
    <line class="st1" x1="220.6" y1="749.7" x2="258.2" y2="706.5"/>
    <line class="st1" x1="225.2" y1="753.8" x2="262.9" y2="709.4"/>
    <line class="st1" x1="228.7" y1="754.6" x2="265.5" y2="710"/>
    <line class="st1" x1="230.6" y1="754.8" x2="267.8" y2="710.4"/>
    <polygon class="st1" points="249 688.7 257 692.9 260.9 686.6 250.8 683.4 249 688.7"/>
    <path class="st1" d="M252.7,698.7c1.7,2,3.9,4.2,6.8,6.4,4.1,3.1,8.1,4.9,11.1,6"/>
    <path class="st1" d="M255.6,694.7c.7,1.3,1.4,2.6,2.1,3.9,2.9,2.5,5.1,4.3,6,5,.2.2.8.5,1.4.5s.7-.3.9-.4c1.9-1.4,3.6-4.8,6.4-6.7.6-.4,1.6-1,1.6-1.9s-.3-.8-.5-1c-1.5-1.6-7-4.9-7.8-5.3-.4-1.7-.6-3.1-.6-4.1s0-1.5-.3-1.7c-.5-.2-1.4.8-2,1.4-2.3,2.6-5.1,7-7.2,10.3Z"/>
    <line class="st1" x1="252.1" y1="699.1" x2="256.3" y2="693.6"/>
    <line class="st1" x1="265.3" y1="678.8" x2="264.7" y2="683.5"/>
    <path class="st1" d="M269.9,679.4c-.7,4,.7,8.1,3.6,10.4,2.9,2.3,7.5,3.2,10.3,1.5.4-.3.7-.5.8-.6,8.3-7.9,23.8-32.5,28.6-36.9.3-.3,1.5-1.3,1.3-2.5-.2-1.4-2.4-2.2-2.6-2.3-1.5-.5-1.8,0-2.8-.2-2.2-.7-1.7-3.6-4.5-5.6-1.2-.8-2.3-1-2.6-1.1-1.4-.2-2.6,0-3.2.4"/>
    <line class="st1" x1="273.6" y1="683.3" x2="303.5" y2="644.8"/>
    <line class="st1" x1="276.1" y1="688.9" x2="305.5" y2="650.4"/>
    <line class="st1" x1="277.3" y1="689.8" x2="307" y2="651.7"/>
    <line class="st1" x1="279.6" y1="689.5" x2="308.5" y2="652.6"/>
    <path class="st1" d="M291,683.8c1.7.2,4.3.2,6.9-1.2,1.4-.7,2.3-1.5,2.7-1.9,2.4-2.2,7-6,14.6-11.9"/>
    <path class="st1" d="M316.1,678.5c-.1-2.6-1.7-33-1.1-35.2.2-.8.7-1.3.7-1.3.6-.6,1.3-.7,2-.8,2.9-.3,5.2.5,5.2.5,3.1,1.1,5.1,3.3,5.9,4.4"/>
    <line class="st1" x1="320.5" y1="644.4" x2="324" y2="774.6"/>
    <line class="st1" x1="325.9" y1="774.7" x2="322.2" y2="643.8"/>
    <path class="st1" d="M305.3,643.5c.5-2.1,1.9-7.5,6.9-11.6,3.2-2.7,10.1-6.7,14.3-4.2,5.9,3.5,3.6,17.9,5.1,17.9s1.4-2.7,1.6-3.7c.5-2,.1-2.4.4-3.9.2-1,.5-1.4,3.3-5.5,2.2-3.3,2.4-3.6,3.1-4.1,2.3-1.7,5.1-1.5,5.1-1.5,0,0-9.5,2.9-15.9-1.3-3.6-2.3-5-6.2-5.4-7.1-1.4-3.9-.8-7.2-.4-9,.2-1,1.1-5.1,2.7-5.2.6,0,1.1.4,1.5.9.3.2.7.6,1,1.1,1.8,2.5.7,5.5,1,7.2.3,2.2,3.2,4.8,14,6.9"/>
    <polyline class="st1" points="298.7 595.6 307 627.8 301.6 638.4"/>
    <line class="st1" x1="301.5" y1="592.5" x2="308.9" y2="622.2"/>
    <line class="st1" x1="311.6" y1="596.8" x2="315.3" y2="611.1"/>
    <path class="st1" d="M308.1,626.4c.6-.9,1.9-2.7,4.1-3.9,3.4-1.9,6.8-1.4,7.8-1.2"/>
    <circle class="st1" cx="313.2" cy="615.9" r="3.2"/>
    <circle class="st1" cx="307.4" cy="594.7" r="2.5"/>
    <circle class="st1" cx="307.4" cy="594.7" r=".9"/>
    <circle class="st1" cx="313.5" cy="615.6" r="1.2"/>
    <path class="st1" d="M157.5,487.8c1,.9,2.3,1.8,3.9,2.7,1.3.7,2.5,1.3,3.6,1.7,5.4-5.3,10.9-10.6,16.3-15.9,4.1,2.7,8.3,5.5,12.4,8.2"/>
    <path class="st1" d="M182.7,480.7c-.4-1.5-.9-3-1.3-4.5"/>
    <path class="st1" d="M169.6,493.9c-1.5-.5-2.9-1.1-4.4-1.6"/>
    <path class="st1" d="M168.8,493.8c4.1,4.1,6.7,6.9,7.3,7.7.1,0,.3.5.7.6.6,0,1.2-.4,1.4-.6,1.4-1.2,13.5-9.8,15.1-12.5.2-.3.3-.6.2-.9-.1-.6-1-.8-1.2-.9-2.1-.7-4.2-3.7-7.8-6.1-.3-.2-1-.7-1.6-.4-.4.1-.6.5-.6.6-.3.7-3.6,3.9-13.5,12.5Z"/>
    <path class="st1" d="M189.2,530.6c-6.7-11-11.2-19.3-12-21.7-.6-1.7-.7-3.3-.7-3.3-.1-1.4.1-2.6.3-3.4"/>
    <path class="st1" d="M194.3,502.1c4.9,6.4,10.1,14.2,15,23.4,3.7,6.8,6.6,13.4,8.9,19.3"/>
    <path class="st1" d="M216.6,545.2c-1.8-4.7-4-9.7-6.6-15-3.5-7-7.1-13.2-10.6-18.6"/>
    <path class="st1" d="M201.9,552.5c1.2.4,6,1.7,11.2-.7,4.3-2,6.4-5.4,7.1-6.6"/>
    <path class="st1" d="M201.6,559.6c1.9.4,7.1,1.2,12.9-1.1,5.6-2.2,8.7-6.1,9.9-7.7"/>
    <path class="st1" d="M206,562c1.6.3,5.8.8,10.4-1.2,4.8-2,7.4-5.5,8.3-6.9"/>
    <path class="st1" d="M217.3,560.7c1.3,2.2,3.3,5.5,6.2,9.1,4.5,5.6,8.5,8.9,8.4,9-.2.2-5.5-4.1-11.4-9.6-3.1-2.9-5.5-5.4-7.1-7.2"/>
    <path class="st1" d="M258.7,580.7c.1.3,4.6-1.6,11.6-3,8.3-1.8,13.4-1.6,13.4-1.9s-7.7-1.1-16.3,1.3c-4.9,1.3-8.8,3.3-8.7,3.6Z"/>
    <circle class="st1" cx="303.4" cy="778.5" r="2"/>
    <circle class="st1" cx="303.3" cy="778.4" r=".6"/>
    <path class="st1" d="M299.3,792.3c.9,0,12.2-.8,15.8-7,2.8-4.7,3.1-8.6,3.1-8.6.1-1.6,0-2.6.5-2.9,1.4-.7,5.8,3.5,8,8.4.7,1.6,4.6,10.2-.6,16.9-4.2,5.4-11.1,5.5-12.1,5.5"/>
    <path class="st1" d="M320.9,808.7c1,0,2.4.3,4,0,1.6,0,6.6-.6,9.9-4.3,1.6-1.8,2.2-3.8,2.5-4.9,2.3-8-2.1-16.2-3.5-18.6"/>
    <path class="st1" d="M196.3,490.6c-.2,1.8-.4,3.3-.5,4.8-.1.7-.2,1.7,0,2.9,0,0,.1.7.4,1.4.5,1.5,3.1,5.9,6.9,11.7"/>
    <line class="st1" x1="343.2" y1="618.1" x2="705.4" y2="183.8"/>
    <line class="st1" x1="703" y1="183.3" x2="340" y2="616.7"/>
    <line class="st1" x1="337.7" y1="617" x2="702.3" y2="182.3"/>
    <line class="st1" x1="701.3" y1="181.4" x2="336.4" y2="616"/>
    <line class="st1" x1="330.5" y1="607.6" x2="692.9" y2="175.2"/>
    <line class="st1" x1="683.4" y1="178.7" x2="693.2" y2="167.7"/>
    <line class="st1" x1="687.5" y1="173.5" x2="684.2" y2="158.5"/>
    <line class="st1" x1="691.7" y1="204.4" x2="708.5" y2="183.7"/>
    <line class="st1" x1="708.3" y1="187.6" x2="702.5" y2="194.7"/>
    <line class="st1" x1="703.6" y1="196.6" x2="711.1" y2="188.5"/>
    <line class="st1" x1="705" y1="198.9" x2="709.1" y2="194.6"/>
    <path class="st1" d="M697.2,157.7c1.7,3.1,4.8,7.7,10,11.8,7.3,5.9,14.8,7.9,18.7,8.6"/>
    <line class="st1" x1="714.9" y1="171" x2="719.4" y2="165.6"/>
    <line class="st1" x1="716.6" y1="172.6" x2="720.4" y2="167.8"/>
    <line class="st1" x1="719.2" y1="174" x2="722.2" y2="170.4"/>
    <line class="st1" x1="720.4" y1="176.7" x2="723.2" y2="172.6"/>
    <circle class="st1" cx="722" cy="183.6" r="3.4"/>
    <circle class="st1" cx="721.9" cy="183.1" r=".9"/>
    <circle class="st1" cx="701.6" cy="172" r="2.1"/>
    <line class="st1" x1="696.9" y1="173.4" x2="706.3" y2="172.6"/>
    <line class="st1" x1="705.7" y1="168.7" x2="703.4" y2="170.5"/>
    <line class="st1" x1="699.9" y1="173.2" x2="698.4" y2="175.1"/>
    <line class="st1" x1="722.1" y1="151" x2="726.7" y2="145"/>
    <line class="st1" x1="724.9" y1="151.3" x2="729.6" y2="144.6"/>
    <line class="st1" x1="727.3" y1="155.3" x2="734" y2="149.4"/>
    <line class="st1" x1="736.6" y1="152.2" x2="739.7" y2="148.4"/>
    <line class="st1" x1="742.5" y1="151.7" x2="752.6" y2="142.9"/>
    <line class="st1" x1="746.5" y1="150.7" x2="754" y2="144.6"/>
    <path class="st1" d="M752.1,150.1c1.6-1.5,3.2-3,4.8-4.4"/>
    <line class="st1" x1="730" y1="183" x2="753.6" y2="210"/>
    <line class="st1" x1="743" y1="219.2" x2="743" y2="204.1"/>
    <line class="st1" x1="741" y1="201.5" x2="741.2" y2="217.7"/>
    <line class="st1" x1="736" y1="215" x2="736" y2="197.7"/>
    <line class="st1" x1="726.7" y1="206.9" x2="726.7" y2="197.8"/>
    <line class="st1" x1="728.6" y1="200.9" x2="728.6" y2="194.4"/>
    <path class="st1" d="M698.7,195.8c4.6,13.4,12.2,20.8,16.1,24.1,7.8,6.5,16.4,9.5,25.4,12.7,5.6,2,10.4,3.2,13.9,4"/>
    <path class="st1" d="M757.9,286.3c6.9.6,12.7.2,16.8-.3,6.9-.9,10.4-2.3,11.9-3,2.8-1.3,5-2.7,6.5-3.8.6.2,1.4.4,2.3.6,1.3.2,2.5.2,3.4.1-4.4,2.8-10.8,6.1-18.6,7.5-5.6,1-11.2.9-12.8.9-2.4,0-4.4-.2-5.9-.3"/>
    <path class="st1" d="M803.6,279.6c-3.3,2.1-7.3,4.3-11.9,6.3-6.5,2.8-12.5,4.5-17.5,5.6"/>
    <path class="st1" d="M807.8,279.7c-3.1,2.2-6.9,4.5-11.2,6.6-2.9,1.4-5.6,2.6-8.2,3.6"/>
    <path class="st1" d="M796.9,289.2c2.4-1,4.3-1.9,5.7-2.7,2.4-1.3,5.4-3.2,5.4-3.2h0"/>
    <path class="st1" d="M809.3,285c-2.8,1.4-5.5,2.8-8.3,4.3"/>
    <line class="st1" x1="818.6" y1="279.8" x2="817.2" y2="285.9"/>
    <line class="st1" x1="818.1" y1="285.5" x2="819.7" y2="279.6"/>
    <line class="st1" x1="819.7" y1="285" x2="821.1" y2="279.7"/>
    <path class="st1" d="M821.2,284.3c0-.1,1.4-4.5,1.4-4.5"/>
    <path class="st1" d="M823.7,279.4c0,.1-1.1,4.1-1.1,4.1"/>
    <path class="st1" d="M824.2,282.7c.4-1,.8-2.1,1.3-3.1"/>
    <line class="st1" x1="827" y1="279.7" x2="826.1" y2="281.6"/>
    <path class="st1" d="M807.7,279.7c-.3,3.1,1.3,5.7,3.3,6.4,2.6.8,6.6-1.4,7.2-5.9"/>
    <circle class="st1" cx="270.6" cy="705.7" r="2.9"/>
    <ellipse class="st0" cx="281.1" cy="696" rx="3.9" ry="3.4" transform="translate(-1.2 .5) rotate(0)"/>
    <path class="st1" d="M764,75.9c1.4-.2,2.9,0,4.7,1,10.5,5.1,16.4,24,16.4,24,.7,2.1,2.9,9.7,3.9,26.6,1.3,21.2,1.8,32-5.3,37.5-3.1,2.4-7.7,3.9-11.7,3-10.2-2.3-15.9-19.3-17.2-25.4,0-.6-.2-.8-.3-1.1-3-5.4-20.2,5-32.3-2-.7-.4-7.3-4.4-7.7-11-.4-6.5,5.5-11,6-11.4,3.2-2.4,6.7-2.9,13.3-3.7,6.5-.8,8.4-.1,11.4-2,3.6-2.3,5.2-6,5.6-7,1.4-3.8,0-5,.8-10.7.3-2.4.9-6.3,3.3-10.2.9-1.3,4.4-7,9.1-7.6Z"/>
    <path class="st1" d="M724.8,12.5c-.4,1,1,2.4,1.5,2.9,6.8,6.9,13.3,14.1,20.2,20.8,2.1,2,1.9,2.2,13.3,20.6,5.9,9.6,10.8,17.3,13.9,22.3.8-.6,1.6-1.2,2.4-1.8-8.6-13.4-17.2-26.8-25.7-40.2-2.8-3.2-21.5-24.2-23.1-25.3-.6-.4-1.2-.4-1.2-.4-.6.2-1.2.6-1.3,1.1Z"/>
    <path class="st1" d="M726.8,15"/>
    <path class="st1" d="M788.3,164.4c.5,8.5,1.7,18.2,4,28.9,3,14,7.3,25.9,11.5,35.4,4.4,10,6.8,14.8,7.7,15.9,0,.2.8.9.6,1.6,0,.5-.6.9-1.1.9-.9.1-1.6-1.1-1.9-1.6-10.4-16.5-17.5-46.2-17.5-46.2-2.2-9.1-3.8-16-4.6-25.7-.3-3.8-.4-7-.5-9.3.6.1,1.2.1,1.8.1Z"/>
    <path class="st1" d="M768.7,76.8c.7.5,2,1.2,3.7,1.4,2.8.4,4.9-.7,5.7-1.1,1.1-.5,2.6-1.4,4.1-2.9,1.4-1.4,1.4-2,2-2.4,3-2.2,13.1,3.3,19.2,12.4,1.6,2.4,3.1,5.3,5,11.8,5.1,17.6,4.2,32.3,3.9,36.4-.2,2.1-1,12.5-5.9,23.9-1.5,3.5-2.9,5.9-5.5,7.6-6.3,3.9-15.8.6-15.7,0,0-.3,2.7.2,5.2-.4,4.6-1.2,9.9-6.9,13.3-26.2-4.4-.1-8.7-.2-13.1-.3,0-1.2,0-2.5,0-3.7,4.1-.2,8.3-.4,12.4-.6.5-3.3.8-7.9,0-13.3-.5-3.6-1.5-6.7-2.4-9.1-4.4.1-8.8.3-13.2.4,0-1.6-.2-3.1-.2-4.7,1.5,0,3.2-.1,5-.4,2.9-.4,5.4-1,7.5-1.7-1.9-10.9-6.5-17.5-9.2-20.7-1.9-2.2-6.8-8.1-10.9-7-1.6.4-2.3,1.7-4.6,2.1-2.5.5-4.8-.5-6.4-1.5Z"/>
    <path class="st1" d="M783.6,73c5.1,1.9,12.5,5.8,17.6,13.5,3.1,4.7,4.2,9.2,5.5,14.5.5,2,2.2,9.3,2.3,20.8,0,11.6,0,21.3-5.1,31.7-2.9,5.8-6.4,9.9-8.8,12.3"/>
    <path class="st1" d="M750.2,105.8c4.3-4.5,10-9.1,14.9-7.7,12.5,3.7,15.3,46.7,4.7,51.2-4,1.7-9.8-2.3-15.2-7.4"/>
    <path class="st1" d="M763.3,98.9c-.7.6,2.8,4.6,5,8.9,2.4,4.6,2.8,8.5,3.4,14.7.3,3.3,1.7,17.2-2.8,23.3-.4.5-2,2.7-1.6,3.1.3.3,1.4-.4,1.7-.6,2.5-1.5,6.3-9.4,5.1-25.1-1.1-13.7-5-21.2-8.8-23.5-.3-.3-1.6-1.1-2-.8Z"/>
    <path class="st1" d="M748.3,109.7c1.6,1.7,4.5,5,6.1,10.2,2,6.6.8,12.1,0,14.4"/>
    <path class="st1" d="M749.5,109.2c1.4-1.7,3.3-3.7,5.8-5.6,2.8-2.2,5.5-3.7,7.7-4.7"/>
    <path class="st1" d="M752.1,110.5c1.1-1.3,2.5-2.8,4.2-4.2,2.9-2.4,5.8-3.8,7.9-4.6"/>
    <path class="st1" d="M720.7,131.7c0-3.7,1.3-5.9,2.1-7,3.5-5,11.1-6.9,18.9-4.5"/>
    <path class="st1" d="M723.5,140.1c18.9-2.7,28.5-3.3,28.9-1.7,0,.4-.3.9-1.2,1.5"/>
    <path class="st1" d="M747.6,165.2c-.7.3-1.6.7-2,1.6-.4.7-.3,1.4-.2,1.7,5,35.6,14.9,57.9,14.9,57.9,7.9,15.4,15.7,30.9,23.6,46.3.5-.3,1.1-.5,1.6-.8"/>
  </g>
  <g>
    <g id="RECTANGLE">
      <path id="RECTANGLE1" data-name="RECTANGLE" class="st9" d="M672.5,608.4c-180.1,29.4-360.1,58.8-540.2,88.2-1.6.3-3-1-3-2.6v-198.6c-.1-50.1,36.6-92.6,86.2-100l530.9-78.8c1.6-.2,3,1,3,2.6l-.6,200c-.2,44.3-32.5,82.1-76.3,89.2Z"/>
      <g id="LINE">
        <g id="LINE_SUP">
          <g class="st4">
            <path d="M260.1,616.2c.6,0,.7.8.2,1-26,7.2-46.2,14.6-60.3,20.3-17.5,7.1-25.7,11.6-31.5,14.9-12,6.7-21.5,13.4-28.4,18.7,1.3-62,.6-110.2-.3-142.8-.8-30.8-2-53.5,12.2-76.3,9.4-15.2,22.7-25.5,35.5-32.5,12.3-6.7,25.7-11,39.5-13l510.6-75.6q0,0,0,.1c.8,5.2-2.8,9.8-7.8,10.6-166.9,24.8-333.9,49.5-500.8,74.3-9.3,1.4-18.4,3.8-27.1,7.4-14.8,6.1-31.4,16.4-42.1,33.8-12.4,20.2-10.9,40.2-9.9,71.8.9,29,1.5,70.9-.5,123.5,4.7-3,10.8-6.5,18-10.2,7.8-4,16.4-7.9,26-11.4,24.6-9.4,47.7-13.2,66.6-14.6Z"/>
          </g>
          <path class="st7" d="M260.1,615.3c.6,0,.7.8.2,1-26,7.2-46.2,14.6-60.3,20.3-17.5,7.1-25.7,11.6-31.5,14.9-12,6.7-21.5,13.4-28.4,18.7,1.3-62,.6-110.2-.3-142.8-.8-30.8-2-53.5,12.2-76.3,9.4-15.2,22.7-25.5,35.5-32.5,12.3-6.7,25.7-11,39.5-13l510.6-75.6q0,0,0,.1c.8,5.2-2.8,9.8-7.8,10.6-166.9,24.8-333.9,49.5-500.8,74.3-9.3,1.4-18.4,3.8-27.1,7.4-14.8,6.1-31.4,16.4-42.1,33.8-12.4,20.2-10.9,40.2-9.9,71.8.9,29,1.5,70.9-.5,123.5,4.7-3,10.8-6.5,18-10.2,7.8-4,16.4-7.9,26-11.4,24.6-9.4,47.7-13.2,66.6-14.6Z"/>
        </g>
        <g>
          <g class="st4">
            <path d="M740.2,509.1c0,6.7-.4,12.8-.9,18.5-.5,4.2-1.5,9.1-3.3,14.6-2.2,6.6-4.9,12-7.4,16-5.4,7.5-15.4,19.3-31.3,29.1-17.1,10.5-33,13.5-36.8,14.3-31,6.3-227.5,38.1-497.3,79.5l7.5-10.5c268.3-41.7,463.6-73.4,489.8-78.9,4.9-1,18.3-4,32.5-12.9,12.4-7.8,20.5-17,25.1-23.1,2.4-3.6,5.4-8.5,7.9-14.8,2.7-6.7,3.7-12.2,4-13.9.9-5.4.9-10.1.8-19.3,0-5.7-.3-10.4-.4-13.6,2.3-.2,4.7-.3,7-.4,1.4,0,2.5,1.1,2.6,2.4,0,4.2.2,8.5.2,13Z"/>
            <path d="M195.6,648.8c-8,4.6-15.9,10.8-22.7,19-.8,1-1.6,2-2.4,3-1.2,1.6-2.4,3.2-3.5,4.9-1.3,1.9-2.6,3.7-3.7,5.5-6.9,1.1-13.8,2.2-20.7,3.3,5.5-7,10.9-11.9,14.8-15,3.7-3,6.7-5,11.8-8.2,5.5-3.6,10.3-6.7,16.7-9.9,2.5-1.2,5.5-2.6,9.1-4,.9-.5,1.5.9.6,1.4Z"/>
          </g>
          <g>
            <path class="st7" d="M740.2,508.2c0,6.7-.4,12.8-.9,18.5-.5,4.2-1.5,9.1-3.3,14.6-2.2,6.6-4.9,12-7.4,16-5.4,7.5-15.4,19.3-31.3,29.1-17.1,10.5-33,13.5-36.8,14.3-31,6.3-227.5,38.1-497.3,79.5l7.5-10.5c268.3-41.7,463.6-73.4,489.8-78.9,4.9-1,18.3-4,32.5-12.9,12.4-7.8,20.5-17,25.1-23.1,2.4-3.6,5.4-8.5,7.9-14.8,2.7-6.7,3.7-12.2,4-13.9.9-5.4.9-10.1.8-19.3,0-5.7-.3-10.4-.4-13.6,2.3-.2,4.7-.3,7-.4,1.4,0,2.5,1.1,2.6,2.4,0,4.2.2,8.5.2,13Z"/>
            <path class="st3" d="M195.6,647.9c-8,4.6-15.9,10.8-22.7,19-.8,1-1.6,2-2.4,3-1.2,1.6-2.4,3.2-3.5,4.9-1.3,1.9-2.6,3.7-3.7,5.5-6.9,1.1-13.8,2.2-20.7,3.3,5.5-7,10.9-11.9,14.8-15,3.7-3,6.7-5,11.8-8.2,5.5-3.6,10.3-6.7,16.7-9.9,2.5-1.2,5.5-2.6,9.1-4,.9-.5,1.5.8.6,1.4Z"/>
          </g>
        </g>
      </g>
    </g>
    <g id="KM">
      <g class="st4">
        <path d="M290.2,582.3c-22.1,3.6-44.2,7.2-66.3,10.8-.5-51.6-.9-103.2-1.4-154.7,22.1-3.5,44.2-7,66.3-10.4.5,51.5,1,102.9,1.4,154.3Z"/>
        <path d="M649.9,371.1c.4,50.6.9,101.1,1.3,151.7-18.5,3-37.1,5.9-55.6,8.9-.2-26.8-.5-53.6-.7-80.5-17.9,30-35.7,59.9-53.6,89.9-5.5.8-11,1.6-16.5,2.4-18.8-25.3-37.7-50.6-56.5-75.9.3,28.5.7,56.9,1,85.4-14.3,2.3-28.6,4.7-42.9,7-4.8-4.8-9.5-9.7-14.3-14.5l-1.1-129.6c-19.6,24.9-39.1,49.8-58.7,74.7,23,23.4,46.1,46.8,69.1,70.2-24.8,4.1-49.7,8.1-74.5,12.2-17.4-17.7-34.9-35.3-52.3-53l-.3-36.3c16.3-21.5,32.6-43,49-64.4,46.3-7.3,92.5-14.6,138.8-21.9,16.2,22,32.4,44,48.6,65.9,16.2-27.1,32.5-54.2,48.7-81.3,23.5-3.5,47-7.2,70.5-10.9Z"/>
      </g>
      <g>
        <path class="st8" d="M290.2,581.4c-22.1,3.6-44.2,7.2-66.3,10.8-.5-51.6-.9-103.2-1.4-154.7,22.1-3.5,44.2-7,66.3-10.4.5,51.4,1,102.9,1.4,154.3Z"/>
        <path class="st8" d="M649.9,370.2c.4,50.6.9,101.1,1.3,151.7-18.5,3-37.1,5.9-55.6,8.9-.2-26.8-.5-53.6-.7-80.5-17.9,30-35.7,59.9-53.6,89.9-5.5.8-11,1.6-16.5,2.4-18.8-25.3-37.7-50.6-56.5-75.9.3,28.5.7,56.9,1,85.4-14.3,2.3-28.6,4.7-42.9,7-4.8-4.8-9.5-9.7-14.3-14.5l-1.1-129.6c-19.6,24.9-39.1,49.8-58.7,74.7,23,23.4,46.1,46.8,69.1,70.2-24.8,4.1-49.7,8.1-74.5,12.2-17.4-17.7-34.9-35.3-52.3-53l-.3-36.3c16.3-21.5,32.6-43,49-64.4,46.3-7.3,92.5-14.6,138.8-21.9,16.2,22,32.4,44,48.6,65.9,16.2-27.1,32.5-54.2,48.7-81.3,23.5-3.5,47-7.2,70.5-10.9Z"/>
      </g>
    </g>
    <g id="GARDEN">
      <g class="st4">
        <text class="st5" transform="translate(297.1 635.5) rotate(-9.4) scale(1 1) skewX(-.2)"><tspan x="0" y="0">G</tspan></text>
        <path id="A" d="M369.6,583.2c-4.3.8-8.6,1.6-12.9,2.5-.6,0-1.1.5-1.3,1.1-4.6,13-9.2,25.9-13.8,38.9-.4,1.2.5,2.4,1.8,2.3,9.8-.9,13.2-3.2,14-5.7.5-1.5,0-2.4.9-3.9,2.5-3.9,10.7-4.6,13-1.7.9,1.2.2,2.3.9,3.5,1,1.6,4.2,2.8,13.6.9,1.1-.2,1.7-1.4,1.2-2.4-5.2-11.5-10.3-23-15.5-34.5-.3-.7-1.1-1.1-1.9-1ZM367.6,608.5c-.6.4-1.4-.4-3.4-.2-2.3.2-3.1,1.4-3.6,1.1-1.5-.9.8-10.7,3.5-10.7,2.5,0,5.1,8.6,3.5,9.8Z"/>
        <path id="R" d="M428.4,601.1c5.1-2.5,8.5-7.5,8.5-12.9s-4.3-10-4.7-10.3c-4.6-4-10.1-3.2-10.8-3.1-7.9,1.3-15.7,2.6-23.6,3.8,0,2.3,0,5.8.1,10,0,4.7,0,8.1.1,10,0,2.7.1,17.6.1,20.4,4.8-.8,9.6-1.6,14.4-2.4,0-3.7-.1-7.3-.1-11,.2,0,.5-.2.7-.2,4.1-.6,8.5,8.1,9.2,9.6,5.2-.9,10.3-1.7,15.5-2.6-1.5-1.8-2.9-3.6-4.4-5.4-1.8-2-3.4-3.9-5-5.9ZM422.9,590.1c0,3.3-2.6,5.9-5.9,5.9h-4.4c-.2,0-.3,0-.3-.3v-7.5c0-1.2.9-2.1,2.1-2.1h4.9c2,0,3.6,1.6,3.6,3.7v.3h0Z"/>
        <path id="D" d="M472.9,566.4l-22.9,3.7v40.3c7.4-1.2,14.7-2.4,22.1-3.6,1.8-.3,4.5-.9,7.5-2.4,1.2-.6,4.2-2.3,7-5.6,3.6-4.2,5.7-9.7,5.7-15.6,0-10.5-9.2-18.4-19.4-16.8ZM475.2,593.9c-1.9,1.9-4.6,3.1-7.5,3.1h-1.7c-.3,0-.9,0-1.4-.6s-.5-1.1-.6-1.4c-.7-6.3-.5-8.9,0-13.2,0-.4.2-1.7,1-2.5s1.3-.8,1.4-.9c.3,0,.7-.2,1-.2h2.8c4.4,0,7.9,3.6,7.9,8,.2,3.1-1,5.8-2.9,7.7Z"/>
        <path d="M538.4,559v6.3c0,1.3-1,2.4-2.3,2.6l-29,3.9c-1.6.2-3-1-3-2.6v-5.5c0-1.3.9-2.4,2.2-2.6l29-4.6c1.7-.4,3.2.8,3.1,2.5Z"/>
        <path d="M536.1,574.2v5.3c0,.9-.6,1.6-1.4,1.7l-28.6,4.3c-1,0-1.8-.7-1.8-1.7v-5.3c0-.9.6-1.6,1.4-1.7l28.6-4.3c1-.2,1.8.6,1.8,1.7Z"/>
        <path d="M538.5,588.5v5.1c0,1.3-.9,2.4-2.2,2.6l-28.9,4.8c-1.6.3-3-1-3-2.6v-5.9c0-1.3,1-2.4,2.3-2.6l28.9-4c1.5-.2,2.9,1,2.9,2.6Z"/>
        <path id="N" d="M594.3,546.7v40c-4.1.7-8.3,1.4-12.4,2-6.8-11.5-13.3-18.8-16.3-17.5-4,1.7-.4,18.7,0,20.2-4.6.8-9.2,1.5-13.8,2.3v-40.1c4.8-.8,9.6-1.6,14.4-2.3.5.9,10.9,19,14.9,17.3,3.6-1.4.3-17.6,0-19.7,4.4-.7,8.9-1.5,13.3-2.2Z"/>
      </g>
      <g>
        <text class="st6" transform="translate(297.1 634.5) rotate(-9.4) scale(1 1) skewX(-.2)"><tspan x="0" y="0">G</tspan></text>
        <path id="A1" data-name="A" class="st8" d="M369.6,582.3c-4.3.8-8.6,1.6-12.9,2.5-.6,0-1.1.5-1.3,1.1-4.6,13-9.2,25.9-13.8,38.9-.4,1.2.5,2.4,1.8,2.3,9.8-.9,13.2-3.2,14-5.7.5-1.5,0-2.4.9-3.9,2.5-3.9,10.7-4.6,13-1.7.9,1.2.2,2.3.9,3.5,1,1.6,4.2,2.8,13.6.9,1.1-.2,1.7-1.4,1.2-2.4-5.2-11.5-10.3-23-15.5-34.5-.3-.7-1.1-1.1-1.9-1ZM367.6,607.6c-.6.4-1.4-.4-3.4-.2-2.3.2-3.1,1.4-3.6,1.1-1.5-.9.8-10.7,3.5-10.7,2.5,0,5.1,8.6,3.5,9.8Z"/>
        <path id="R1" data-name="R" class="st8" d="M428.4,600.2c5.1-2.5,8.5-7.5,8.5-12.9s-4.3-10-4.7-10.3c-4.6-4-10.1-3.2-10.8-3.1-7.9,1.3-15.7,2.6-23.6,3.8,0,2.3,0,5.8.1,10,0,4.7,0,8.1.1,10,0,2.7.1,17.6.1,20.4,4.8-.8,9.6-1.6,14.4-2.4,0-3.7-.1-7.3-.1-11,.2,0,.5-.2.7-.2,4.1-.6,8.5,8.1,9.2,9.6,5.2-.9,10.3-1.7,15.5-2.6-1.5-1.8-2.9-3.6-4.4-5.4-1.8-2-3.4-3.9-5-5.9ZM422.9,589.2c0,3.3-2.6,5.9-5.9,5.9h-4.4c-.2,0-.3,0-.3-.3v-7.5c0-1.2.9-2.1,2.1-2.1h4.9c2,0,3.6,1.6,3.6,3.7v.3h0Z"/>
        <path id="D1" data-name="D" class="st8" d="M472.9,565.5l-22.9,3.7v40.3c7.4-1.2,14.7-2.4,22.1-3.6,1.8-.3,4.5-.9,7.5-2.4,1.2-.6,4.2-2.3,7-5.6,3.6-4.2,5.7-9.7,5.7-15.6,0-10.5-9.2-18.4-19.4-16.8ZM475.2,593c-1.9,1.9-4.6,3.1-7.5,3.1h-1.7c-.3,0-.9,0-1.4-.6s-.5-1.1-.6-1.4c-.7-6.3-.5-8.9,0-13.2,0-.4.2-1.7,1-2.5s1.3-.8,1.4-.9c.3,0,.7-.2,1-.2h2.8c4.4,0,7.9,3.6,7.9,8,.2,3.1-1,5.8-2.9,7.7Z"/>
        <g id="E">
          <path class="st8" d="M538.4,558.1v6.3c0,1.3-1,2.4-2.3,2.6l-29,3.9c-1.6.2-3-1-3-2.6v-5.5c0-1.3.9-2.4,2.2-2.6l29-4.6c1.7-.4,3.2.8,3.1,2.5Z"/>
          <path class="st8" d="M536.1,573.3v5.3c0,.9-.6,1.6-1.4,1.7l-28.6,4.3c-1,0-1.8-.7-1.8-1.7v-5.3c0-.9.6-1.6,1.4-1.7l28.6-4.3c1-.2,1.8.6,1.8,1.7Z"/>
          <path class="st8" d="M538.5,587.6v5.1c0,1.3-.9,2.4-2.2,2.6l-28.9,4.8c-1.6.3-3-1-3-2.6v-5.9c0-1.3,1-2.4,2.3-2.6l28.9-4c1.5-.2,2.9,1,2.9,2.6Z"/>
        </g>
        <path id="N1" data-name="N" class="st8" d="M594.3,545.8v40c-4.1.7-8.3,1.4-12.4,2-6.8-11.5-13.3-18.8-16.3-17.5-4,1.7-.4,18.7,0,20.2-4.6.8-9.2,1.5-13.8,2.3v-40.1c4.8-.8,9.6-1.6,14.4-2.3.5.9,10.9,19,14.9,17.3,3.6-1.4.3-17.6,0-19.7,4.4-.7,8.9-1.5,13.3-2.2Z"/>
      </g>
    </g>
  </g>
</svg>